<?xml version="1.0" encoding="UTF-8"?>
<svg width="360px" height="360px" viewBox="0 0 360 360" version="1.1" xmlns="http://www.w3.org/2000/svg" xmlns:xlink="http://www.w3.org/1999/xlink">
    <!-- Generator: Sketch 54 (76480) - https://sketchapp.com -->
    <title>编组 9</title>
    <desc>Created with Sketch.</desc>
    <defs>
        <circle id="path-1" cx="150" cy="150" r="150"></circle>
        <filter x="-15.0%" y="-15.0%" width="130.0%" height="130.0%" filterUnits="objectBoundingBox" id="filter-2">
            <feMorphology radius="7" operator="dilate" in="SourceAlpha" result="shadowSpreadOuter1"></feMorphology>
            <feOffset dx="0" dy="0" in="shadowSpreadOuter1" result="shadowOffsetOuter1"></feOffset>
            <feGaussianBlur stdDeviation="8" in="shadowOffsetOuter1" result="shadowBlurOuter1"></feGaussianBlur>
            <feColorMatrix values="0 0 0 0 0.28627451   0 0 0 0 0.611764706   0 0 0 0 0.988235294  0 0 0 0.2 0" type="matrix" in="shadowBlurOuter1"></feColorMatrix>
        </filter>
    </defs>
    <g id="页面1" stroke="none" stroke-width="1" fill="none" fill-rule="evenodd">
        <g id="15-锁屏状态-工作中" transform="translate(-460.000000, -220.000000)">
            <g id="编组-4复制-2" transform="translate(490.000000, 250.000000)">
                <g id="分组">
                    <g id="编组-9">
                        <g id="形状结合">
                            <use fill="black" fill-opacity="1" filter="url(#filter-2)" xlink:href="#path-1"></use>
                            <use fill="#183773" fill-rule="evenodd" xlink:href="#path-1"></use>
                        </g>
                        <path d="M136.38243,26.0846131 L136.914519,32.1667845 C134.536323,32.4191766 132.179219,32.7422214 129.845345,33.1337787 L128.785273,27.1214526 C131.292937,26.6998236 133.826123,26.353413 136.382429,26.0846114 Z M140.354066,25.7310947 C142.887809,25.5462876 145.442665,25.4375535 148.016362,25.4071661 L148.016362,31.5115438 C145.621756,31.5412813 143.244329,31.6423496 140.886108,31.8127221 L140.354066,25.7310956 Z M161.986473,273.005246 L161.454431,266.923617 C163.281736,266.739949 165.096744,266.514588 166.89849,266.248502 L167.958897,272.262726 C165.982916,272.557202 163.991724,272.805091 161.986474,273.005247 Z M158.013006,273.337831 C156.02241,273.472505 154.01894,273.560239 152.003695,273.599934 L152.003695,267.494743 C153.840055,267.456695 155.6661,267.376696 157.480916,267.255664 L158.013005,273.337831 Z M124.864167,27.8459271 L125.924575,33.8601596 C123.585903,34.3346254 121.272342,34.8782617 118.986118,35.4888371 L117.406009,29.59144 C119.862876,28.9352649 122.349761,28.3525926 124.864165,27.8459228 Z M171.892924,271.611528 L170.83285,265.599195 C172.641361,265.26914 174.435483,264.897858 176.214205,264.486359 L177.795166,270.386937 C175.845015,270.841522 173.877199,271.250119 171.892924,271.61153 Z M113.570399,30.6826815 L115.151363,36.5832705 C112.875133,37.275036 110.628044,38.0337467 108.412385,38.8571081 L106.324239,33.1196302 C108.70597,32.235425 111.122216,31.422255 113.570399,30.6826815 Z M181.66379,269.418911 L180.083681,263.521514 C181.863312,263.045449 183.626363,262.528819 185.371785,261.972676 L187.461524,267.714528 C185.548748,268.328223 183.615751,268.896768 181.663791,269.418912 Z M102.608151,34.5680294 L104.697891,40.3098805 C102.505962,41.2104594 100.34713,42.1751228 98.2237257,43.2015377 L95.6434255,37.6677366 C97.926968,36.565738 100.249417,35.5316316 102.60815,34.5680275 Z M191.238979,266.434742 L189.150827,260.697253 C190.891392,260.076595 192.613103,259.416221 194.31487,258.717221 L196.897686,264.256417 C195.03388,265.027055 193.147211,265.753596 191.238979,266.434743 Z M92.0792143,39.4591996 L94.6620266,44.9983855 C92.5746161,46.0962711 90.5241173,47.2548675 88.5128769,48.4718273 L85.4600473,43.1838555 C87.6241824,41.877196 89.8314561,40.6347719 92.0792143,39.4591996 Z M200.558831,262.67284 L197.978525,257.13903 C199.669903,256.376089 201.34007,255.574445 202.987899,254.735227 L206.044332,260.029436 C204.240976,260.953873 202.412026,261.835452 200.558831,262.672841 Z M82.0779689,45.300714 L85.1343948,50.5949118 C83.1697786,51.8762882 81.2456961,53.2146229 79.3644854,54.6075672 L75.862234,49.6055384 C77.8879024,48.1095741 79.9606921,46.6737506 82.0779636,45.3007067 Z M209.56491,258.152481 L206.512065,252.864486 C208.144254,251.962292 209.752796,251.022549 211.33653,250.046426 L214.843591,255.055324 C213.111955,256.129594 211.351938,257.162448 209.564913,258.152485 Z M72.6903402,52.0274498 L76.1973747,57.03631 C74.3718285,58.4857182 72.5901895,59.9880468 70.8547765,61.5409768 L66.9295601,56.8628023 C68.7998471,55.1943555 70.7209795,53.5816991 72.6903402,52.0274498 Z M218.200309,252.897385 L214.69806,247.895359 C216.261141,246.857498 217.798068,245.783382 219.307638,244.674206 L223.238952,249.35964 C221.590204,250.579232 219.910182,251.758955 218.200309,252.897385 Z M63.9937038,59.567333 L67.9250043,64.2527513 C66.2528454,65.8535185 64.6276953,67.5029952 63.0518309,69.1989042 L58.7331881,64.8800063 C60.4332917,63.0569968 62.187655,61.2852474 63.9937014,59.5673354 Z M226.409508,246.93483 L222.484286,242.256657 C223.968355,241.08723 225.423674,239.882943 226.849009,238.645031 L231.175095,242.971373 C229.620313,244.331188 228.031296,245.652827 226.409508,246.93483 Z M56.0571599,67.843093 L60.3832469,72.1694355 C58.8769421,73.904002 57.4204308,75.6829681 56.0159343,77.5041126 L51.3363479,73.5772348 C52.8534671,71.6183823 54.4279094,69.7061634 56.0571564,67.8430971 Z M234.138007,240.295187 L229.819364,235.976289 C231.214379,234.679867 232.577974,233.350091 233.908881,231.98823 L238.597286,235.922502 C237.147627,237.416922 235.660701,238.874984 234.138007,240.295187 Z M48.9419199,76.7733529 L53.6303501,80.7076454 C52.3005687,82.5577034 51.023006,84.4478133 49.7998157,86.3758227 L44.794523,82.870872 C46.117811,80.7955776 47.50109,78.7622584 48.9419163,76.7733579 Z M241.331836,233.011797 L236.652251,229.084926 C237.947936,227.666655 239.209463,226.216643 240.435529,224.736193 L245.450997,228.248269 C244.117792,229.87105 242.744228,231.459403 241.331836,233.011797 Z M42.7013615,86.2730598 L47.7168854,89.7851749 C46.5724397,91.7317441 45.4822302,93.7140317 44.4483309,95.7299655 L39.1551736,92.6737904 C40.27581,90.5020902 41.4586559,88.3677322 42.701359,86.2730639 Z M247.937174,225.12129 L242.931892,221.616347 C244.117671,220.082109 245.266501,218.517857 246.377046,216.924925 L251.681694,219.987729 C250.476498,221.731804 249.227802,223.443514 247.937174,225.12129 Z M37.3805613,96.2536041 L42.6852825,99.3164672 C41.7329509,101.339963 40.8364126,103.394906 39.9976509,105.479314 L34.4568748,102.895474 C35.3682611,100.647996 36.3435732,98.4332924 37.3805613,96.2536041 Z M253.900259,216.664247 L248.607124,213.608074 C249.672154,211.96469 250.697419,210.29314 251.681558,208.594786 L257.235039,211.184569 C256.169546,213.041856 255.057425,214.868939 253.900259,216.664247 Z M33.0152333,106.622981 L38.5687993,109.212804 C37.8130423,111.293195 37.1141286,113.400865 36.473936,115.533935 L30.7279312,113.442437 C31.425992,111.140268 32.1891399,108.866402 33.0152333,106.622981 Z M259.167748,207.686065 L253.626998,205.102218 C254.560293,203.357706 255.451029,201.587002 256.29782,199.791493 L262.057632,201.888017 C261.143538,203.849099 260.179703,205.782322 259.167748,207.686065 Z M29.6301888,117.286349 L35.3900456,119.382889 C34.8326956,121.499953 34.3326869,123.640281 33.891781,125.802112 L27.9847069,124.21924 C28.4682416,121.883587 29.017407,119.571952 29.6301888,117.286349 Z M263.687636,198.237844 L257.941643,196.14635 C258.732354,194.310112 259.477795,192.44978 260.176556,190.566768 L266.098357,192.153603 C265.346963,194.207639 264.542842,196.236268 263.687632,198.237853 Z M27.2376068,128.147278 L33.1593492,129.734097 C32.7993185,131.867923 32.4965562,134.021207 32.2526978,136.192312 L26.2300582,135.130296 C26.5009996,132.782008 26.8374726,130.453726 27.2376068,128.147278 Z M267.410777,188.377052 L261.503692,186.79416 C262.14151,184.877091 262.731491,182.938152 263.272213,180.978775 L269.310285,182.043513 C268.732088,184.178072 268.09837,186.2898 267.410777,188.377052 Z M25.8355438,139.109811 L31.8733803,140.174507 C31.7065472,142.306076 31.5963463,144.453562 31.5442819,146.615453 L25.4523349,146.082445 C25.5158307,143.741475 25.6441439,141.416684 25.8355446,139.109801 Z M270.292921,178.167706 L264.270219,177.105678 C264.745864,175.120121 265.17132,173.115052 265.545174,171.091887 L271.652986,171.626283 C271.257118,173.827472 270.803214,176.008504 270.292913,178.16774 Z M25.4071661,150.081293 L31.5145046,150.615648 C31.5341033,152.753863 31.610565,154.87849 31.7424506,156.988092 L25.627367,156.988091 C25.4915358,154.701933 25.4175855,152.399116 25.4071661,150.081293 Z M272.297077,167.679837 L266.205,167.146818 C266.510725,165.10642 266.764222,163.048881 266.964077,160.975659 L273.094938,160.975659 C272.888637,163.22834 272.622142,165.463607 272.297077,167.679837 Z M25.9282884,160.975659 L32.0591498,160.975659 C32.2618111,163.078023 32.5196356,165.164259 32.8311548,167.232904 L26.7388077,167.765946 C26.4079951,165.52151 26.1372589,163.257518 25.9282854,160.975659 Z M273.395858,156.988091 L267.280773,156.988091 C267.410864,154.907199 267.487029,152.811688 267.507887,150.702937 L273.615635,150.168547 C273.603772,152.45691 273.529983,154.730622 273.395858,156.988091 Z M27.385715,171.712146 L33.4939459,171.177713 C33.8745754,173.229039 34.3082644,175.261729 34.7935324,177.27431 L28.7703036,178.336431 C28.2503708,176.150181 27.7882713,173.941518 27.3857109,171.712148 Z M273.573219,146.169458 L267.481006,146.702489 C267.431194,144.569823 267.324807,142.451151 267.163288,140.347915 L273.201934,139.283076 C273.387795,141.561676 273.512112,143.857691 273.573219,146.169458 Z M29.7585042,182.211257 L35.7973964,181.146374 C36.3486061,183.132249 36.9504348,185.097064 37.6014055,187.03934 L31.6935665,188.622431 C30.9927564,186.509987 30.3471652,184.372359 29.7585036,182.211259 Z M272.812921,135.302591 L266.789759,136.3647 C266.55226,134.221884 266.257389,132.096372 265.906717,129.989733 L271.829636,128.402598 C272.220157,130.681971 272.548521,132.982571 272.812923,135.302591 Z M33.0141221,192.396803 L38.9371037,190.809651 C39.6496708,192.716919 40.4101649,194.600808 41.2171213,196.459853 L35.4701961,198.551686 C34.5986194,196.527323 33.7793603,194.475127 33.0141225,192.396804 Z M271.090647,124.472387 L265.182825,126.055477 C264.752245,123.920267 264.264031,121.805934 263.719875,119.714171 L269.481213,117.617092 C270.080522,119.877525 270.617647,122.163271 271.090648,124.472387 Z M37.1106322,202.198063 L42.8719233,200.101 C43.7353475,201.918028 44.6438378,203.709489 45.5959503,205.47394 L40.0541517,208.058274 C39.0231913,206.134643 38.0414593,204.180676 37.1106326,202.198064 Z M268.39393,113.769373 L262.646991,115.861211 C262.020784,113.752413 261.33723,111.668289 260.598137,109.610644 L266.153412,107.020024 C266.962558,109.240877 267.710084,111.49135 268.393931,113.769372 Z M41.9992334,211.551008 L47.5544206,208.960429 C48.5574556,210.677164 49.6026038,212.366287 50.6884481,214.02638 L45.3942046,217.083193 C44.2159781,215.271259 43.0837732,213.426643 41.9992359,211.551008 Z M264.724219,103.286712 L259.182389,105.871062 C258.360818,103.807953 257.482721,101.773487 256.550013,99.7695763 L261.856595,96.7056386 C262.87367,98.8659646 263.830272,101.060383 264.724222,103.286711 Z M47.626697,220.398634 L52.9331852,217.334751 C54.0642917,218.942639 55.2345294,220.521006 56.4425139,222.068469 L51.4361048,225.574196 C50.1230061,223.883333 48.8526615,222.157604 47.6266971,220.398635 Z M260.095998,93.117733 L254.801721,96.1745656 C253.787644,94.1764437 252.718368,92.2110664 251.595901,90.2804405 L256.613348,86.7669787 C257.83379,88.8459721 258.995436,90.9636513 260.095999,93.1177319 Z M53.9373729,228.690607 L58.954751,225.177194 C60.2023931,226.668986 61.4862228,228.129469 62.8048737,229.55731 L58.1242155,233.485081 C56.6885551,231.923304 55.2924045,230.324623 53.9373526,228.690625 Z M254.535321,83.3541929 L249.528918,86.8599211 C248.327512,84.9458402 247.072707,83.068681 245.766574,81.2305463 L250.456907,77.2946574 C251.873816,79.2719405 253.234078,81.2925768 254.535321,83.3541929 Z M60.8745223,236.382564 L65.5648247,232.4467 C66.9177374,233.816171 68.3039109,235.152701 69.7220361,236.454982 L65.4024156,240.774849 C63.8562864,239.349036 62.3464744,237.884426 60.8745243,236.382566 Z M248.078272,74.0852868 L243.397608,78.0130624 C242.01618,76.2016393 240.583527,74.4313865 239.101811,72.7044655 L243.429707,68.3763141 C245.034115,70.2320735 246.584453,72.1358808 248.078272,74.0852868 Z M68.3813177,243.435044 L72.7092135,239.106893 C74.1563378,240.348687 75.6338918,241.556022 77.1406036,242.727626 L73.2145471,247.406795 C71.5697796,246.122928 69.9582033,244.798511 68.381321,243.435047 Z M240.76967,65.3972359 L236.450054,69.7171071 C234.897771,68.0265424 233.296825,66.3813828 231.649435,64.7838487 L235.58239,60.0964592 C237.363437,61.8115033 239.093367,63.5792659 240.76967,65.3972359 Z M76.4008671,249.812817 L80.3338391,245.125406 C81.8643779,246.234825 83.4225982,247.308389 85.0072675,248.344866 L81.504344,253.347854 C79.7725503,252.211184 78.0709049,251.032352 76.4008671,249.812817 Z M232.662267,57.3731761 L228.736213,62.0523414 C227.024127,60.5003241 225.266269,58.997888 223.464905,57.5472991 L226.97339,52.5363665 C228.918363,54.0921864 230.815508,55.705309 232.662267,57.3731761 Z M84.8761503,255.484244 L88.384658,250.47328 C89.9879534,251.446186 91.6162698,252.381974 93.2684152,253.279451 L90.2150836,258.568307 C88.4077685,257.583434 86.6276556,256.554943 84.8761503,255.484244 Z M223.816528,50.0929864 L220.313607,55.0959714 C218.454687,53.6995784 216.553187,52.3568116 214.611405,51.0699674 L217.669046,45.7736645 C219.763316,47.152585 221.813336,48.5932196 223.816528,50.0929864 Z M93.7495959,260.421127 L96.8072549,255.124793 C98.4726954,255.957614 100.160585,256.752195 101.869774,257.507387 L99.2891468,263.041887 C97.4178444,262.212758 95.5708717,261.338716 93.7495959,260.421127 Z M214.300869,43.6327262 L211.247531,48.9215755 C209.256789,47.6970278 207.226929,46.5299282 205.16026,45.4225864 L207.744012,39.8813296 C209.970901,41.0667967 212.15738,42.3181251 214.300869,43.6327262 Z M102.962651,264.598955 L105.546434,259.057689 C107.263356,259.747477 109.000246,260.398067 110.755994,261.008352 L108.667685,266.746305 C106.744001,266.076096 104.841888,265.359874 102.962651,264.598955 Z M204.192137,38.0634099 L201.61151,43.5979084 C199.50607,42.5601294 197.365204,41.5832892 195.191214,40.66969 L197.281659,34.9259009 C199.622362,35.9029746 201.926704,36.949668 204.192137,38.0634099 Z M112.455525,267.997556 L114.545972,262.253759 C116.30366,262.798342 118.078925,263.302946 119.870703,263.766511 L118.290574,269.664094 C116.326248,269.155063 114.38081,268.599128 112.455525,267.997556 Z M193.575951,33.44898 L191.487632,39.1869297 C189.286755,38.3489698 187.054321,37.5749804 184.792609,36.8672369 L186.37404,30.9649103 C188.807614,31.7209033 191.209102,32.5497773 193.575951,33.44898 Z M122.167266,270.602006 L123.748695,264.699684 C125.536465,265.097825 127.339519,265.455406 129.156843,265.771409 L128.096793,271.783602 C126.103556,271.436889 124.126641,271.042619 122.167261,270.602005 Z M182.546505,29.843529 L180.966347,35.7411047 C178.69117,35.1133914 176.388424,34.5521017 174.060342,34.0594575 L175.121011,28.0437484 C177.62477,28.569039 180.10077,29.1697971 182.546522,29.8435339 Z M132.036313,272.403646 L133.09698,266.387949 C134.904301,266.63949 136.724733,266.850094 138.557299,267.018794 L138.025299,273.099943 C136.014703,272.915419 134.017985,272.682935 132.0363,272.403645 Z M171.205409,27.2880551 L170.145359,33.3002487 C167.818379,32.889847 165.467882,32.5476369 163.096004,32.2757559 L163.628195,26.1924242 C166.178167,26.4811565 168.704715,26.8471681 171.205442,27.288061 Z M142.001529,273.40095 L142.53372,267.31763 C144.350536,267.423585 146.178389,267.488433 148.016362,267.511258 L148.016362,273.615635 C145.999474,273.591822 143.994157,273.519895 142.001503,273.400948 Z M159.659326,25.807271 L159.127326,31.88842 C156.771643,31.698432 154.396423,31.5776336 152.0037,31.5280587 L152.003695,25.4228671 C154.575512,25.4735253 157.128149,25.6024206 159.659326,25.807271 Z" id="形状结合" fill-opacity="0.3" fill="#499CFC"></path>
                    </g>
                </g>
            </g>
        </g>
    </g>
</svg>