<?xml version="1.0" encoding="UTF-8"?>
<svg width="49px" height="49px" viewBox="0 0 49 49" version="1.1" xmlns="http://www.w3.org/2000/svg" xmlns:xlink="http://www.w3.org/1999/xlink">
    <!-- Generator: Sketch 54 (76480) - https://sketchapp.com -->
    <title>编组 5</title>
    <desc>Created with Sketch.</desc>
    <g id="页面1" stroke="none" stroke-width="1" fill="none" fill-rule="evenodd">
        <g id="5-普通场景-除尘任务" transform="translate(-497.000000, -545.000000)" fill-rule="nonzero">
            <g id="地图切换" transform="translate(491.000000, 545.000000)">
                <g id="编组-5" transform="translate(6.000000, 0.000000)">
                    <path d="M47.0563124,14.9647928 C53.8571597,31.0541452 41.9683462,49.0303952 24.5,48.9999614 C7.03165381,49.0303952 -4.85715969,31.0490729 1.94368759,14.9647928 C5.61776678,6.04768009 14.8460402,-0.110098551 24.5,0.00149216539 C34.1539598,-0.110098551 43.3822332,6.04768009 47.0563124,14.9647928 Z" id="形状" fill="#0091FF"></path>
                    <path d="M36.6235483,17.0287573 C37.0643158,17.4994266 37.0147914,18.1435004 36.9751718,18.772711 C36.9603145,18.9807964 36.9454572,19.1938362 36.9454572,19.4118304 L36.9454572,34.1809385 C36.9454572,34.7457416 36.7770741,35.2709095 36.4997373,35.7118524 L36.306592,35.9744363 C35.7964903,36.6036469 35.0239091,37 34.162184,37 L14.7783207,37 C13.2430633,37 12,35.73167 12,34.1809385 L12,19.4118304 C12,17.8561444 13.2480157,16.5927689 14.7783207,16.5927689 L19.3494259,16.5927689 C19.8892423,16.5927689 20.3300097,17.0287573 20.3300097,17.5737428 C20.3300097,18.113774 19.8941947,18.5547168 19.3494259,18.5547168 L14.7783207,18.5547168 C14.312791,18.5646256 13.9463102,18.9510699 13.9562151,19.4118304 L13.9562151,26.0408363 L19.5029517,28.2851858 L23.3856673,22.8105584 C22.008888,21.0765135 21.3403082,19.610007 21.3403082,18.3565402 C21.3304033,16.6769939 21.9890782,15.0668094 23.1628073,13.8678412 C24.3167266,12.668873 25.9114134,11.9950727 27.5754343,12.0000271 C29.2394553,11.9950727 30.8341421,12.6738274 31.9930138,13.8678412 C33.1617904,15.0668094 33.8204654,16.6769939 33.8105605,18.3565402 C33.8105605,19.11952 33.5579859,19.9865424 33.0627416,20.9278811 C32.5972119,21.8147212 31.9038698,22.7956952 30.9926202,23.8559397 C30.185372,24.792324 29.3186944,25.6742097 28.4024924,26.5065512 L28.2935386,26.6056395 L27.6893405,27.1357618 L27.0504753,26.5957307 C26.2283697,25.8872495 25.4458837,25.1341786 24.7030172,24.3414723 L21.3601179,29.0432112 L34.9199078,34.5327018 C34.9644798,34.4286592 34.989242,34.3097532 34.989242,34.1958017 L34.989242,19.4613746 C34.9199078,18.8817081 34.8555261,18.5002183 34.8109541,18.2772696 C34.6029515,18.1038651 34.4791404,17.85119 34.4741879,17.5786973 C34.4741879,17.0386661 34.9100029,16.5977233 35.4498193,16.5977233 C35.9599209,16.5927689 36.351164,16.7414013 36.6235483,17.0287573 L36.6235483,17.0287573 Z M23.3014757,18.3515858 C23.3014757,18.9015258 23.6184321,20.184719 25.7232205,22.5479745 C26.4413248,23.3555439 27.1643815,24.0541163 27.6695308,24.5148768 C28.2440142,23.9649369 29.1007869,23.0979144 29.8981303,22.111986 C31.1610033,20.5612545 31.8592978,19.2235627 31.8592978,18.3466314 C31.8592978,15.9189686 29.9377498,13.9471118 27.5803868,13.9471118 C25.2180713,13.9520662 23.3014757,15.923923 23.3014757,18.3515858 Z M14.7089865,35.0430065 L18.3391275,29.9250969 L13.9562151,28.1514167 L13.9562151,34.1858929 C13.9611676,34.6367445 14.2880288,35.0033712 14.7089865,35.0430065 Z M17.1059691,35.0430065 L30.9975727,35.0430065 L20.2012462,30.6781678 L17.1059691,35.0430065 Z M30.7251883,17.9304606 C30.7251883,19.6892776 29.313742,21.1260577 27.5853392,21.1260577 C25.8519841,21.1260577 24.4405377,19.694232 24.4405377,17.9304606 C24.4405377,16.1666893 25.8519841,14.7348636 27.5853392,14.7348636 C29.313742,14.7348636 30.7251883,16.1666893 30.7251883,17.9304606 Z M26.3918004,17.9304606 C26.3918004,18.6092154 26.9217118,19.1641097 27.5754343,19.1641097 C28.2291569,19.1641097 28.7590683,18.6092154 28.7590683,17.9304606 C28.7590683,17.2467515 28.2291569,16.6968116 27.5704819,16.6968116 C26.9266643,16.6968116 26.3918004,17.2467515 26.3918004,17.9304606 Z" id="形状" fill="#FFFFFF"></path>
                </g>
            </g>
        </g>
    </g>
</svg>