<?xml version="1.0" encoding="UTF-8"?>
<svg width="180px" height="60px" viewBox="0 0 180 60" version="1.1" xmlns="http://www.w3.org/2000/svg" xmlns:xlink="http://www.w3.org/1999/xlink">
    <!-- Generator: Sketch 54 (76480) - https://sketchapp.com -->
    <title>编组 8</title>
    <desc>Created with Sketch.</desc>
    <g id="页面1" stroke="none" stroke-width="1" fill="none" fill-rule="evenodd">
        <g id="9.3-工作视图-任务暂停复制" transform="translate(-111.000000, -501.000000)" fill="#FFFFFF">
            <g id="编组-8" transform="translate(111.000000, 501.000000)">
                <rect id="矩形备份复制-8" opacity="0.2" x="0" y="0" width="180" height="60" rx="10"></rect>
                <g id="编组-7" transform="translate(59.000000, 20.000000)">
                    <g id="编组-3" transform="translate(23.000000, 0.000000)" font-family="SourceHanSansCN-Medium, Source Han Sans CN" font-size="20" font-weight="400">
                        <text id="标准">
                            <tspan x="0" y="18">标准</tspan>
                        </text>
                    </g>
                    <g id="shuiliang" fill-rule="nonzero">
                        <path d="M2.06988135e-15,13.70971 C2.06988135e-15,12.2626048 0.810385306,10.4031525 2.25838973,8.18136809 C2.83510565,7.297767 3.50379782,6.37081944 4.24830824,5.41608568 C5.15676737,4.25463814 6.10897788,3.12105178 7.10330065,2.01727796 C7.49854992,1.57714459 7.90001381,1.14145701 8.30893523,0.711326665 L8.40588317,0.611296352 L8.99875708,0 L9.59411683,0.611296352 L9.68982185,0.712438113 C9.7656401,0.792462362 9.85513051,0.885823987 9.95580721,0.991411539 C10.2727524,1.3315146 10.5872117,1.67272911 10.8979423,2.01838941 C11.8915781,3.12264098 12.8437711,4.25620643 13.7529347,5.41719713 C14.4962022,6.37193089 15.1648944,7.29887845 15.7416103,8.18247954 C17.1896147,10.4042639 18,12.2637163 18,13.7108215 C18,18.2844296 13.9754178,22 8.99875708,22 C4.02458224,21.9988886 0,18.2833182 0,13.70971 M8.33130783,2.90865919 C7.35921571,3.98771814 6.42855478,5.09610528 5.54094738,6.23188845 C4.82005248,7.15550167 4.17373291,8.05132869 3.61938959,8.90158634 C2.30313493,10.9188643 1.57851126,12.5849247 1.57851126,13.70971 C1.57851126,17.5075275 4.90581411,20.5773467 8.99875708,20.5773467 C13.0941859,20.5773467 16.4214887,17.5075275 16.4214887,13.70971 C16.4214887,12.5838133 15.6956222,10.9188643 14.3806104,8.90158634 C13.8262671,8.05132869 13.1799475,7.15661312 12.4602955,6.23188845 C11.5722857,5.09636606 10.6416349,3.98799099 9.66993509,2.90865919 C9.44745201,2.6630292 9.223726,2.41851066 8.99875708,2.17510357 C8.79118906,2.40072749 8.56746306,2.64635748 8.33130783,2.90865919 M3.02307113,15.7372705 C2.69146081,13.745164 6.29893743,14.42121 9,15.7372705 C11.7010626,17.053331 15.5433967,14.3888735 15.2792432,15.7372705 C15.0150897,17.0856674 12.1734047,19.566097 9,19.566097 C5.82659533,19.566097 3.35468145,17.7293769 3.02307113,15.7372705 Z" id="形状"></path>
                    </g>
                </g>
            </g>
        </g>
    </g>
</svg>