<?xml version="1.0" encoding="UTF-8"?>
<svg width="27px" height="13px" viewBox="0 0 27 13" version="1.1" xmlns="http://www.w3.org/2000/svg" xmlns:xlink="http://www.w3.org/1999/xlink">
    <!-- Generator: Sketch 54 (76480) - https://sketchapp.com -->
    <title>下拉</title>
    <desc>Created with Sketch.</desc>
    <g id="页面1" stroke="none" stroke-width="1" fill="none" fill-rule="evenodd" fill-opacity="0.5">
        <g id="2-首次登陆" transform="translate(-820.000000, -294.000000)" fill="#FFFFFF">
            <g id="用户框" transform="translate(410.000000, 265.000000)">
                <path d="M428.415123,21.9861111 C428.802716,21.9861111 429.134136,22.1514861 429.407978,22.4805486 C429.681821,22.8096111 429.819444,23.2078611 429.819444,23.6736111 C429.819444,24.1477986 429.68463,24.5477361 429.413596,24.8734236 L420.570586,35.4861111 L429.413596,46.1122986 C429.68463,46.4379861 429.819444,46.8379236 429.819444,47.3121111 C429.819444,47.7778611 429.681821,48.1727361 429.407978,48.4984236 C429.134136,48.8241111 428.802716,48.9861111 428.415123,48.9861111 C428.020509,48.9861111 427.687685,48.8241111 427.416651,48.4984236 L417.586404,36.6859236 C417.31537,36.3433611 417.180556,35.9434236 417.180556,35.4861111 C417.180556,35.0389236 417.31537,34.6423611 417.586404,34.2997986 L427.416651,22.4872986 C427.694707,22.1531736 428.027531,21.9861111 428.415123,21.9861111" id="下拉" transform="translate(423.500000, 35.486111) rotate(270.000000) translate(-423.500000, -35.486111) "></path>
            </g>
        </g>
    </g>
</svg>