<?xml version="1.0" encoding="UTF-8"?>
<svg width="49px" height="49px" viewBox="0 0 49 49" version="1.1" xmlns="http://www.w3.org/2000/svg" xmlns:xlink="http://www.w3.org/1999/xlink">
    <!-- Generator: Sketch 54 (76480) - https://sketchapp.com -->
    <title>编组 2</title>
    <desc>Created with Sketch.</desc>
    <defs>
        <linearGradient x1="50%" y1="0%" x2="50%" y2="100%" id="linearGradient-1">
            <stop stop-color="#006BFF" offset="0%"></stop>
            <stop stop-color="#245FD2" offset="100%"></stop>
        </linearGradient>
    </defs>
    <g id="页面1" stroke="none" stroke-width="1" fill="none" fill-rule="evenodd">
        <g id="5-普通场景-除尘任务" transform="translate(-72.000000, -545.000000)">
            <g id="充电点" transform="translate(72.000000, 545.000000)">
                <g id="编组-2" transform="translate(0.000263, -0.000105)">
                    <path d="M24.2365591,48.0754717 C37.6214624,48.0754717 48.4731183,37.3133593 48.4731183,24.0377358 C48.4731183,10.7621124 37.6214624,3.55271368e-14 24.2365591,3.55271368e-14 C10.851129,3.55271368e-14 -1.0658141e-14,10.7621124 -1.0658141e-14,24.0377358 C-1.0658141e-14,37.3133593 10.851129,48.0754717 24.2365591,48.0754717" id="Fill-1" fill="url(#linearGradient-1)"></path>
                    <path d="M23.9592595,25.656643 L23.9592595,25.3787888 C23.9592595,25.3787888 23.9592595,25.2395991 23.8023015,25.2395991 L23.4894497,24.9612197 L23.3324918,24.9612197 C23.1760659,24.9612197 23.1760659,24.8225552 23.01964,24.8225552 L22.7067882,24.8225552 L19.1058003,25.2395991 L25.0553048,17.1760499 L24.1156854,21.7635329 L24.1156854,22.1811021 C24.1156854,22.1811021 24.1156854,22.3197665 24.2726433,22.3197665 C24.2726433,22.3197665 24.2726433,22.4589563 24.4290692,22.4589563 L24.5854951,22.598146 C24.5854951,22.598146 24.741921,22.598146 24.741921,22.7368104 C24.741921,22.7368104 24.8988789,22.7368104 24.8988789,22.8760002 L25.3681566,22.8760002 L28.9691445,22.4589563 L23.1760659,30.3833157 L24.1156854,25.7958327 C23.9592595,25.7958327 23.9592595,25.7958327 23.9592595,25.656643 L23.9592595,25.656643 Z M34.2072837,20.598016 L34.2072837,20.4257359 C34.2072837,20.4257359 34.2072837,20.2534558 34.0130815,20.2534558 L33.6257412,19.9099461 L33.4320711,19.9099461 C33.2378688,19.9099461 33.2378688,19.737666 33.0441987,19.737666 L32.6573904,19.737666 L27.0398919,20.4257359 L28.9771255,10.6215274 L28.9771255,9.93345745 C28.9771255,9.93345745 28.9771255,9.76170259 28.7829232,9.76170259 C28.7829232,9.58942249 28.5892531,9.58942249 28.3955829,9.41766763 C28.2019128,9.41766763 28.0077106,9.24538753 27.8145725,9.24538753 L27.4277642,9.24538753 C27.233562,9.24538753 27.233562,9.24538753 27.0398919,9.41766763 L26.8462217,9.41766763 C26.6525515,9.41766763 26.6525515,9.58942249 26.4583493,9.76170259 L14.0613312,26.6178399 L14.0613312,26.7895948 C14.0613312,26.7895948 14.0613312,26.9618749 13.8676611,26.9618749 L13.8676611,27.6499448 C13.8676611,27.6499448 13.8676611,27.8222249 14.0613312,27.8222249 C14.0613312,27.8222249 14.0613312,27.9934545 14.2555335,27.9934545 L14.4492036,28.1657346 L15.4175544,28.1657346 L21.035053,27.4776647 L19.0978194,37.4536281 L19.0978194,38.141698 C19.0978194,38.141698 19.0978194,38.3139781 19.2920216,38.3139781 C19.2920216,38.485733 19.4856917,38.485733 19.6793619,38.6580131 C19.8725,38.6580131 20.0667022,38.8302932 20.0667022,38.8302932 L20.2603723,38.8302932 C20.4535104,38.8302932 20.6471806,38.8302932 20.8413828,38.6580131 L21.035053,38.6580131 C21.2287231,38.6580131 21.2287231,38.485733 21.4223933,38.3139781 L33.8194114,21.2855607 L33.8194114,21.1138058 C33.8194114,21.1138058 33.8194114,20.9415257 34.0130815,20.9415257 L34.0130815,20.598016 L34.2072837,20.598016 Z" id="Fill-3" fill="#FFFFFF"></path>
                </g>
            </g>
        </g>
    </g>
</svg>