<?xml version="1.0" encoding="UTF-8"?>
<svg width="62px" height="79px" viewBox="0 0 62 79" version="1.1" xmlns="http://www.w3.org/2000/svg" xmlns:xlink="http://www.w3.org/1999/xlink">
    <!-- Generator: Sketch 54 (76480) - https://sketchapp.com -->
    <title>编组</title>
    <desc>Created with Sketch.</desc>
    <g id="页面1" stroke="none" stroke-width="1" fill="none" fill-rule="evenodd" opacity="0.7">
        <g id="图标状态" transform="translate(-1062.000000, -389.000000)" fill="#FFFFFF" fill-rule="nonzero">
            <g id="洗地模式" transform="translate(1003.000000, 364.000000)">
                <g id="编组-7">
                    <g id="编组" transform="translate(59.000000, 25.000000)">
                        <g opacity="0.5" transform="translate(2.000000, 58.000000)" id="路径">
                            <g>
                                <path d="M1.74,9.821 C1.054,9.821 0.498,9.265 0.498,8.58 L0.498,1.44 C0.498,0.755 1.054,0.2 1.74,0.2 C2.425,0.2 2.98,0.756 2.98,1.44 L2.98,8.58 C2.98,9.265 2.425,9.821 1.74,9.821 Z"></path>
                            </g>
                            <g transform="translate(5.000000, 0.000000)">
                                <path d="M2.234,9.821 C1.548,9.821 0.992,9.265 0.992,8.58 L0.992,1.44 C0.992,0.755 1.548,0.2 2.234,0.2 C2.919,0.2 3.474,0.756 3.474,1.44 L3.474,8.58 C3.474,9.265 2.918,9.821 2.234,9.821 Z"></path>
                            </g>
                            <g transform="translate(11.000000, 0.000000)">
                                <path d="M1.729,9.821 C1.044,9.821 0.488,9.265 0.488,8.58 L0.488,1.44 C0.488,0.755 1.044,0.2 1.729,0.2 C2.414,0.2 2.969,0.756 2.969,1.44 L2.969,8.58 C2.969,9.265 2.413,9.821 1.729,9.821 Z"></path>
                            </g>
                            <g transform="translate(16.000000, 0.000000)">
                                <path d="M2.223,9.821 C1.538,9.821 0.983,9.265 0.983,8.58 L0.983,1.44 C0.983,0.755 1.539,0.2 2.223,0.2 C2.908,0.2 3.464,0.756 3.464,1.44 L3.464,8.58 C3.464,9.265 2.908,9.821 2.223,9.821 Z"></path>
                            </g>
                            <g transform="translate(22.000000, 0.000000)">
                                <path d="M1.717,9.821 C1.032,9.821 0.477,9.265 0.477,8.58 L0.477,1.44 C0.477,0.755 1.033,0.2 1.717,0.2 C2.403,0.2 2.957,0.756 2.957,1.44 L2.957,8.58 C2.957,9.265 2.403,9.821 1.717,9.821 Z"></path>
                            </g>
                            <g transform="translate(27.000000, 0.000000)">
                                <path d="M2.213,9.821 C1.527,9.821 0.971,9.265 0.971,8.58 L0.971,1.44 C0.971,0.755 1.527,0.2 2.213,0.2 C2.898,0.2 3.454,0.756 3.454,1.44 L3.454,8.58 C3.454,9.265 2.898,9.821 2.213,9.821 Z"></path>
                            </g>
                            <g transform="translate(33.000000, 0.000000)">
                                <path d="M1.707,9.821 C1.021,9.821 0.467,9.265 0.467,8.58 L0.467,1.44 C0.467,0.755 1.022,0.2 1.707,0.2 C2.392,0.2 2.948,0.756 2.948,1.44 L2.948,8.58 C2.947,9.265 2.391,9.821 1.707,9.821 Z"></path>
                            </g>
                            <g transform="translate(38.000000, 0.000000)">
                                <path d="M2.202,9.821 C1.517,9.821 0.961,9.265 0.961,8.58 L0.961,1.44 C0.961,0.755 1.517,0.2 2.202,0.2 C2.887,0.2 3.442,0.756 3.442,1.44 L3.442,8.58 C3.442,9.265 2.886,9.821 2.202,9.821 Z"></path>
                            </g>
                            <g transform="translate(44.000000, 0.000000)">
                                <path d="M1.696,9.821 C1.011,9.821 0.456,9.265 0.456,8.58 L0.456,1.44 C0.456,0.755 1.012,0.2 1.696,0.2 C2.382,0.2 2.937,0.756 2.937,1.44 L2.937,8.58 C2.937,9.265 2.382,9.821 1.696,9.821 Z"></path>
                            </g>
                            <g transform="translate(49.000000, 0.000000)">
                                <path d="M2.19,9.821 C1.505,9.821 0.95,9.265 0.95,8.58 L0.95,1.44 C0.95,0.755 1.506,0.2 2.19,0.2 C2.876,0.2 3.431,0.756 3.431,1.44 L3.431,8.58 C3.431,9.265 2.876,9.821 2.19,9.821 Z"></path>
                            </g>
                            <g transform="translate(55.000000, 0.000000)">
                                <path d="M1.686,9.821 C1.001,9.821 0.445,9.265 0.445,8.58 L0.445,1.44 C0.445,0.755 1.001,0.2 1.686,0.2 C2.372,0.2 2.926,0.756 2.926,1.44 L2.926,8.58 C2.927,9.265 2.372,9.821 1.686,9.821 Z"></path>
                            </g>
                        </g>
                        <g transform="translate(4.000000, 62.000000)" id="椭圆形">
                            <circle cx="3.875" cy="10.067" r="3.696"></circle>
                            <circle cx="33.601" cy="2.806" r="2.464"></circle>
                            <circle cx="46.37" cy="6.763" r="2.464"></circle>
                            <circle cx="17.25" cy="6.894" r="1.289"></circle>
                            <circle cx="28.077" cy="11.692" r="4.928"></circle>
                        </g>
                        <path d="M53.613,17.381 C32.2686667,17.381 21.1388333,17.381 20.2235,17.381 C18.8505,17.381 18.129,16.0249199 18,14.8149199 C17.671,11.7259199 15.8554764,9.57533092 14.0464764,8.21833092 C14.2524764,6.60933092 15.4499831,5.498 17.1149831,5.498 C18.2249831,5.498 27.9616554,5.498 46.325,5.498 C47.795,5.498 48.99,4.302 48.99,2.834 C48.99,1.365 47.794,0.17 46.325,0.17 L16.625,0.17 C12.633,0.17 9.266,2.873 8.239,6.544 C4.398,6.796 0.646,9.777 0.588,15.292 L0.588,57.051 C0.588,59.069 2.229,60.711 4.247,60.711 L58.178,60.711 C60.196,60.711 61.837,59.069 61.837,57.051 L61.837,25.609 C61.837,21.071 58.148,17.381 53.613,17.381 Z M6.2125,54.614 L6.2125,16.2810426 C6.24168799,13.5774157 7.86648611,12.614 9.37647813,12.614 C10.8796596,12.614 13,13.5860955 13,16.7647636 C13,19.9434318 15.2657528,22.9036969 20.0174464,22.9036969 L53.0066858,22.9036969 C54.774505,22.9036969 56.2125,24.3057178 56.2125,26.0288773 L56.2125,54.614 L6.2125,54.614 Z" id="形状"></path>
                        <path d="M11.985,34.463 L50.125,34.45 C52.012,34.466 53.748,35.5 54.645,37.144 L57.634,48.689 C58.327,49.882 58.507,53.296 58.131,54.613 C57.756,55.929 56.857,57.037 55.639,57.687 C54.88,58.108 54.021,58.328 53.147,58.325 L9.23,58.349 C7.857,58.35 6.535,57.813 5.557,56.855 C4.579,55.897 4.024,54.598 4.014,53.245 C4.011,52.386 4.233,49.543 4.658,48.797 L7.464,37.232 C8.327,35.548 10.067,34.483 11.985,34.463 Z" id="路径" opacity="0.5"></path>
                    </g>
                </g>
            </g>
        </g>
    </g>
</svg>