<?xml version="1.0" encoding="UTF-8"?>
<svg width="72px" height="72px" viewBox="0 0 72 72" version="1.1" xmlns="http://www.w3.org/2000/svg" xmlns:xlink="http://www.w3.org/1999/xlink">
    <!-- Generator: Sketch 54 (76480) - https://sketchapp.com -->
    <title>编组</title>
    <desc>Created with Sketch.</desc>
    <defs>
        <polygon id="path-1" points="0.000182278481 0.469458228 71.5297215 0.469458228 71.5297215 72 0.000182278481 72"></polygon>
    </defs>
    <g id="页面1" stroke="none" stroke-width="1" fill="none" fill-rule="evenodd" opacity="0.7">
        <g id="图标状态" transform="translate(-1057.000000, -584.000000)">
            <g id="一键清洁" transform="translate(1003.000000, 552.000000)">
                <g id="编组" transform="translate(54.000000, 32.000000)">
                    <path d="M27,31.5116369 L42.4882196,47 C42.4882196,47 45.7774815,43.7109793 40.5521922,37.3197731 L54.1251339,23.7466959 C55.291622,22.5805557 55.291622,21.0398427 54.1251339,19.8746051 C52.959548,18.708465 51.4195671,18.708465 50.253079,19.8746051 L36.701789,33.4269228 C30.3100115,28.2226162 27,31.5116369 27,31.5116369" id="Fill-1" fill="#FFFFFF"></path>
                    <path d="M32.2998468,61 L30.3698621,59.0729045 L32.2998468,53.2916181 L26.5107921,55.2187136 L24.5799081,53.2916181 L26.3228299,47.3243603 L20.7199387,49.4374272 L18.789954,47.5103317 L20.7199387,41.7290454 C20.7199387,41.7290454 15.1170475,43.8421123 14.9299847,43.6561408 L13,41.7290454 L24.5601226,34 L40,49.4167637 L32.2998468,61 Z" id="Fill-3" fill="#FFFFFF"></path>
                    <path d="M58.4996024,59 C57.6822157,59 57,59.6588859 57,60.5 C57,61.3180371 57.6591572,62 58.4996024,62 C59.3177843,62 60,61.3403183 60,60.5 C60,59.6588859 59.3408428,59 58.4996024,59" id="Fill-5" fill="#FFFFFF"></path>
                    <path d="M50.6187798,63.001354 C48.6769485,62.9482422 47.0814074,64.4642583 47.0013511,66.3800107 C46.9482905,68.3237167 48.4647062,69.9198664 50.3795417,70 L50.6187798,70 C52.5606111,69.9459564 54.0770267,68.3237167 53.9969704,66.3800107 C53.9429789,64.5183019 52.4805547,63.0544658 50.6187798,63.001354" id="Fill-7" fill="#FFFFFF"></path>
                    <g>
                        <mask id="mask-2" fill="white">
                            <use xlink:href="#path-1"></use>
                        </mask>
                        <g id="Clip-10"></g>
                        <path d="M0.000182278481,36.2352304 C0.000182278481,55.9559392 16.0434228,72.0000911 35.765043,72.0000911 C38.2148658,72.0000911 40.661043,71.7503696 43.0361316,71.2591291 C44.2656,71.0039392 45.0594228,69.7963443 44.8051443,68.5659646 C44.6811949,67.9699139 44.3348658,67.4577114 43.829043,67.1241418 C43.3223089,66.7896608 42.7125873,66.6739139 42.1119797,66.7969519 C40.0394734,67.2262177 37.9049924,67.4431291 35.765043,67.4431291 C18.557043,67.4431291 4.5571443,53.4432304 4.5571443,36.2352304 C4.5571443,19.026319 18.557043,5.02642025 35.765043,5.02642025 C52.973043,5.02642025 66.9729418,19.026319 66.9729418,36.2352304 C66.9729418,42.4901165 65.1310177,48.5226228 61.6449418,53.6820152 C60.9422582,54.7237367 61.2174987,56.1418633 62.2573975,56.8454582 C63.299119,57.5490532 64.718157,57.2738127 65.4208405,56.2330025 C69.4182076,50.3180658 71.5299038,43.4033316 71.5299038,36.2352304 C71.5299038,16.5136101 55.4866633,0.469458228 35.765043,0.469458228 C16.0434228,0.469458228 0.000182278481,16.5136101 0.000182278481,36.2352304 Z" id="Fill-9" fill="#FFFFFF" mask="url(#mask-2)"></path>
                    </g>
                </g>
            </g>
        </g>
    </g>
</svg>