<?xml version="1.0" encoding="UTF-8"?>
<svg width="65px" height="78px" viewBox="0 0 65 78" version="1.1" xmlns="http://www.w3.org/2000/svg" xmlns:xlink="http://www.w3.org/1999/xlink">
    <!-- Generator: Sketch 54 (76480) - https://sketchapp.com -->
    <title>编组</title>
    <desc>Created with Sketch.</desc>
    <defs>
        <path d="M7.98177966,9.66289655 L48.7918644,0.318896552 C50.8068644,-0.194206897 52.9452542,0.421517241 54.3631356,1.92441379 L62.6577966,9.63641379 C63.7308475,10.7144828 64.3191525,12.1732414 64.2883051,13.6838621 C64.2574576,15.1944828 63.6118644,16.6289655 62.4947458,17.664 C61.8039831,18.326069 60.9512712,18.8016552 60.0192373,19.0444138 L7.80661017,31.4063448 C6.34466102,31.7936552 4.78576271,31.5917241 3.47474576,30.8446897 C2.16372881,30.0976552 1.20855932,28.8673103 0.818559322,27.4251034 C0.573983051,26.5092414 0.573983051,25.5470345 0.818559322,24.6311724 L3.9429661,13.8846897 C4.39025424,11.8488276 5.94474576,10.2234483 7.98177966,9.66289655 Z" id="path-1"></path>
    </defs>
    <g id="页面1" stroke="none" stroke-width="1" fill="none" fill-rule="evenodd" opacity="0.7">
        <g id="图标状态" transform="translate(-1061.000000, -205.000000)">
            <g id="除尘模式" transform="translate(1003.000000, 176.000000)">
                <g id="编组-6">
                    <g id="编组" transform="translate(58.000000, 29.000000)">
                        <path d="M54.6391703,42.5249704 L47.5551616,35.2466286 C46.3728499,33.982513 44.5867812,33.4649224 42.9048085,33.8962479 L28.2480876,37.0781032 L20.4485557,2.29185741 C20.0551823,1.13833812 19.0920201,0.287852658 17.9206658,0.0600243033 C16.7493115,-0.167804052 15.5494678,0.262415512 14.771487,1.18921241 C13.9935061,2.11490335 13.7568246,3.39671434 14.1501981,4.55023363 L21.7678359,38.8034053 L7.97237269,41.7563262 C6.2717723,42.2274664 4.97440706,43.5944365 4.6007571,45.307573 L2.1528568,55.1384771 C1.94904773,55.9082273 1.94904773,56.7177921 2.1528568,57.4886483 C2.47829386,58.7018895 3.27599816,59.7370708 4.36955434,60.3652577 C5.46420627,60.9934446 6.76485875,61.1637629 7.98552166,60.8386098 L52.4356217,50.4403468 C53.2136026,50.2357436 53.9258386,49.836491 54.5022018,49.2790857 C55.4335874,48.4086929 55.973791,47.2020874 55.9989932,45.9313361 C56.0252911,44.6594788 55.5354919,43.4318599 54.6391703,42.5249704 Z M8.71200237,54.63637 L10.8070719,47.0937031 L43.4011822,39.855176 L49.0190805,45.4325468 L8.71200237,54.63637 Z" id="形状" fill="#FFFFFF" fill-rule="nonzero"></path>
                        <g opacity="0.5" transform="translate(0.000000, 46.000000)">
                            <g id="SVGID_1_-link" fill="#FFFFFF" fill-rule="nonzero">
                                <path d="M7.98177966,9.66289655 L48.7918644,0.318896552 C50.8068644,-0.194206897 52.9452542,0.421517241 54.3631356,1.92441379 L62.6577966,9.63641379 C63.7308475,10.7144828 64.3191525,12.1732414 64.2883051,13.6838621 C64.2574576,15.1944828 63.6118644,16.6289655 62.4947458,17.664 C61.8039831,18.326069 60.9512712,18.8016552 60.0192373,19.0444138 L7.80661017,31.4063448 C6.34466102,31.7936552 4.78576271,31.5917241 3.47474576,30.8446897 C2.16372881,30.0976552 1.20855932,28.8673103 0.818559322,27.4251034 C0.573983051,26.5092414 0.573983051,25.5470345 0.818559322,24.6311724 L3.9429661,13.8846897 C4.39025424,11.8488276 5.94474576,10.2234483 7.98177966,9.66289655 Z" id="SVGID_1_"></path>
                            </g>
                            <g id="Clipped">
                                <mask id="mask-2" fill="white">
                                    <use xlink:href="#path-1"></use>
                                </mask>
                                <g id="SVGID_1_"></g>
                                <g id="SVGID_3_-link" mask="url(#mask-2)" fill="#FFFFFF" fill-rule="nonzero">
                                    <g transform="translate(-3.305085, -59.586207)" id="SVGID_3_">
                                        <rect x="0" y="0" width="69.4067797" height="113.655172"></rect>
                                    </g>
                                </g>
                            </g>
                        </g>
                        <g transform="translate(10.000000, 59.000000)" fill="#FFFFFF" fill-rule="nonzero" id="椭圆形">
                            <ellipse cx="4.11184211" cy="8.93558824" rx="4.08505263" ry="4.13082353"></ellipse>
                            <ellipse cx="23.1765263" cy="3.42782353" rx="2.72336842" ry="2.75388235"></ellipse>
                            <ellipse cx="38.1561579" cy="7.55864706" rx="2.72336842" ry="2.75388235"></ellipse>
                            <ellipse cx="19.0914737" cy="13.0675294" rx="5.44673684" ry="5.50776471"></ellipse>
                        </g>
                    </g>
                </g>
            </g>
        </g>
    </g>
</svg>