<?xml version="1.0" encoding="UTF-8"?>
<svg width="61px" height="79px" viewBox="0 0 61 79" version="1.1" xmlns="http://www.w3.org/2000/svg" xmlns:xlink="http://www.w3.org/1999/xlink">
    <!-- Generator: Sketch 54 (76480) - https://sketchapp.com -->
    <title>编组</title>
    <desc>Created with Sketch.</desc>
    <g id="页面1" stroke="none" stroke-width="1" fill="none" fill-rule="evenodd" opacity="0.9">
        <g id="图标状态" transform="translate(-1063.000000, -994.000000)" fill="#FFFFFF" fill-rule="nonzero">
            <g id="石材洗护" transform="translate(1003.000000, 969.000000)">
                <g id="编组" transform="translate(60.000000, 25.000000)">
                    <path d="M18.839,24.584 L9.201,24.584 C7.514,24.584 5.896,25.276 4.703,26.507 C3.51,27.738 2.84,29.408 2.84,31.149 L2.84,71.259 C2.84,73.681 4.742,75.643 7.088,75.643 L48.869,75.643 C51.216,75.643 53.117,73.68 53.117,71.259 L53.117,55.011 C53.117,47.657 40.591,54.365 29.734,41.49 C20.742,30.656 25.986,24.584 18.861,24.584 L18.839,24.584 Z" id="路径" opacity="0.5"></path>
                    <path d="M27.0432748,6.851 L14.2142748,6.851 C13.8902748,6.857 13.5782748,6.727 13.3492748,6.491 C13.1202748,6.255 12.9942748,5.932 13.0002748,5.598 L13.0002748,1.423 C12.9932748,1.089 13.1202748,0.766 13.3492748,0.53 C13.5782748,0.294 13.8902748,0.164 14.2142748,0.17 L27.0432748,0.17 C27.3672748,0.164 27.6802748,0.294 27.9082748,0.53 C28.1372748,0.766 28.2632748,1.089 28.2572748,1.423 L28.2572748,5.598 C28.2642748,5.932 28.1372748,6.255 27.9082748,6.491 C27.6792748,6.727 27.3662748,6.857 27.0432748,6.851 L27.0432748,6.851 Z" id="路径" opacity="0.5"></path>
                    <path d="M51.994,78.614 L8.505,78.614 C4.053,78.601 0.448,74.88 0.435,70.286 L0.435,24.668 C0.435,17.993 5.678,12.582 12.146,12.582 L29.808,12.582 C46.53,12.582 60.086,26.572 60.086,43.83 L60.086,70.286 C60.074,74.888 56.454,78.614 51.994,78.614 L51.994,78.614 Z M12.868376,17.5829708 C10.89681,17.5829708 9.00573587,18.3926515 7.6121597,19.8324074 C6.21761376,21.2721633 5.435,23.2254936 5.435,25.2632871 L5.435,69.5277716 C5.435,71.766529 7.19127449,73.582 9.35873637,73.582 L51.5112636,73.582 C53.6787255,73.582 55.435,71.7674998 55.435,69.5277716 L55.435,43.8432253 C55.3991181,29.3466406 44.027459,17.6072418 29.9956889,17.582 L12.868376,17.582 L12.868376,17.5829708 Z M44.3982474,45.9398531 C43.2632474,45.9058531 42.1402474,45.6858531 41.0712474,45.2908531 C38.0012474,44.1308531 35.2272474,42.2668531 32.9572474,39.8388531 C27.2032474,33.9468531 25.3372474,26.9868531 28.5972474,23.6458531 C31.8562474,20.3058531 38.6002474,22.1848531 44.3312474,28.0538531 C50.0632474,33.9238531 51.8842474,40.8838531 48.6022474,44.2938531 C47.4822474,45.4218531 45.9632474,46.0258531 44.3992474,45.9638531 L44.3992474,45.9398531 L44.3982474,45.9398531 Z M34.0732409,27.9503763 C33.6671127,27.9188416 33.2633642,28.0465186 32.9500427,28.3072565 C32.0227695,29.2348373 32.9500427,32.7859492 36.3378815,36.2124607 C37.7926453,37.7245867 39.5646968,38.8952153 41.5263276,39.638203 C42.7748545,40.0481537 43.826663,40.0481537 44.2724522,39.638203 C45.1997253,38.7106221 44.2724522,35.1595102 40.8846134,31.7329988 C39.1387381,29.70555 36.7202131,28.3757098 34.0732409,27.9857566 L34.0732409,27.9503763 Z" id="形状"></path>
                    <path d="M29.899,16.482 L11.428,16.482 C10.087,16.482 9,15.36 9,13.976 L9,6.506 C9,5.122 10.087,4 11.428,4 L29.899,4 C31.24,4 32.327,5.122 32.327,6.506 L32.327,13.976 C32.327,15.36 31.24,16.482 29.899,16.482 L29.899,16.482 Z M14,12 L28,12 L28,8 L14,8 L14,12 Z" id="形状"></path>
                    <path d="M29.488,56.673 L31.933,57.618 L29.488,58.562 C27.422,59.361 25.792,61.042 25.018,63.175 L24.106,65.698 L23.192,63.175 C22.418,61.042 20.788,59.361 18.722,58.562 L16.277,57.618 L18.722,56.673 C20.788,55.874 22.418,54.193 23.192,52.06 L24.106,49.537 L25.018,52.06 C25.793,54.193 27.422,55.874 29.488,56.673 Z" id="路径"></path>
                </g>
            </g>
        </g>
    </g>
</svg>