<?xml version="1.0" encoding="UTF-8"?>
<svg width="41px" height="33px" viewBox="0 0 41 33" version="1.1" xmlns="http://www.w3.org/2000/svg" xmlns:xlink="http://www.w3.org/1999/xlink">
    <!-- Generator: Sketch 54 (76480) - https://sketchapp.com -->
    <title>功能</title>
    <desc>Created with Sketch.</desc>
    <g id="页面1" stroke="none" stroke-width="1" fill="none" fill-rule="evenodd">
        <g id="5-普通场景-除尘任务" transform="translate(-46.000000, -53.000000)" fill="#FFFFFF" fill-rule="nonzero">
            <path d="M84.2835537,53 L48.7155026,53 C47.2181572,53 46,54.1537511 46,55.5716977 C46,56.9888317 47.218151,58.1428571 48.7155026,58.1428571 L84.2835537,58.1428571 C85.7815344,58.1428571 87,56.9893751 87,55.5716977 C86.9996842,54.153213 85.780899,53 84.2835537,53 Z M84.2835537,80.8571429 L48.7155026,80.8571429 C47.2181572,80.8571429 46,82.010894 46,83.4288405 C46,84.8459745 47.218151,86 48.7155026,86 L84.2835537,86 C85.7815344,86 87,84.846518 87,83.4288405 C86.9996842,82.0103558 85.780899,80.8571429 84.2835537,80.8571429 Z M84.2835537,66.9285714 L48.7155026,66.9285714 C47.2181572,66.9285714 46,68.0823225 46,69.5002691 C46,70.9174031 47.218151,72.0714286 48.7155026,72.0714286 L84.2835537,72.0714286 C85.7815344,72.0714286 87,70.9179465 87,69.5002691 C86.9996842,68.0817844 85.780899,66.9285714 84.2835537,66.9285714 Z" id="功能"></path>
        </g>
    </g>
</svg>