<?xml version="1.0" encoding="UTF-8"?>
<svg width="38px" height="40px" viewBox="0 0 38 40" version="1.1" xmlns="http://www.w3.org/2000/svg" xmlns:xlink="http://www.w3.org/1999/xlink">
    <!-- Generator: Sketch 54 (76480) - https://sketchapp.com -->
    <title>报告</title>
    <desc>Created with Sketch.</desc>
    <defs>
        <polygon id="path-1" points="0 0.0473954944 33 0.0473954944 33 38.9985698 0 38.9985698"></polygon>
        <polygon id="path-3" points="0.0358315881 0.0145342627 21.9733886 0.0145342627 21.9733886 21.9999952 0.0358315881 21.9999952"></polygon>
    </defs>
    <g id="页面1" stroke="none" stroke-width="1" fill="none" fill-rule="evenodd">
        <g id="11-功能" transform="translate(-37.000000, -420.000000)">
            <g id="编组-5" transform="translate(37.000000, 420.000000)">
                <g id="报告" transform="translate(0.000000, 0.000000)">
                    <g id="编组" transform="translate(0.000000, 0.393939)">
                        <mask id="mask-2" fill="white">
                            <use xlink:href="#path-1"></use>
                        </mask>
                        <g id="Clip-2"></g>
                        <path d="M14.2676471,37.0461293 L3.39705882,37.0461293 C2.59428529,37.0461293 1.94117647,36.3892307 1.94117647,35.5817989 L1.94117647,3.46415181 C1.94117647,2.65672003 2.59428529,1.9998214 3.39705882,1.9998214 L29.6029412,1.9998214 C30.4057147,1.9998214 31.0588235,2.65672003 31.0588235,3.46415181 L31.0588235,12.1525123 C31.0588235,12.6916787 31.4933559,13.1287325 32.0294118,13.1287325 C32.5654676,13.1287325 33,12.6916787 33,12.1525123 L33,3.46415181 C33,1.58014431 31.4760794,0.0473808511 29.6029412,0.0473808511 L3.39705882,0.0473808511 C1.52392059,0.0473808511 0,1.58014431 0,3.46415181 L0,35.5817989 C0,37.4658064 1.52392059,38.9985698 3.39705882,38.9985698 L14.2676471,38.9985698 C14.8037029,38.9985698 15.2382353,38.561516 15.2382353,38.0223496 C15.2382353,37.4831831 14.8037029,37.0461293 14.2676471,37.0461293" id="Fill-1" fill="#FFFFFF" mask="url(#mask-2)"></path>
                    </g>
                    <path d="M27,7.39393939 C27,6.84163939 26.5647361,6.39393939 26.0277778,6.39393939 L6.97222222,6.39393939 C6.43526389,6.39393939 6,6.84163939 6,7.39393939 C6,7.94623939 6.43526389,8.39393939 6.97222222,8.39393939 L26.0277778,8.39393939 C26.5647361,8.39393939 27,7.94623939 27,7.39393939" id="Fill-3" fill="#FFFFFF"></path>
                    <path d="M7.00840336,14.3939394 C6.45146218,14.3939394 6,14.8416394 6,15.3939394 C6,15.9462394 6.45146218,16.3939394 7.00840336,16.3939394 L16.9915966,16.3939394 C17.5485378,16.3939394 18,15.9462394 18,15.3939394 C18,14.8416394 17.5485378,14.3939394 16.9915966,14.3939394 L7.00840336,14.3939394 Z" id="Fill-5" fill="#FFFFFF"></path>
                    <g id="编组" transform="translate(16.000000, 16.393939)">
                        <mask id="mask-4" fill="white">
                            <use xlink:href="#path-3"></use>
                        </mask>
                        <g id="Clip-8"></g>
                        <path d="M19.9665852,12.235702 C19.639179,14.6347611 18.3991092,16.7624547 16.4749738,18.2268267 C14.8427948,19.468888 12.9219258,20.0690499 11.0152751,20.0689536 C8.28160699,20.0688092 5.57776856,18.834691 3.80076419,16.4895488 C2.33958952,14.5611549 1.71523144,12.1778858 2.04258952,9.7788267 C2.37004367,7.37976761 3.6100655,5.25207396 5.53424891,3.78770197 C7.12415721,2.57779825 9.02341048,1.94047221 10.9857817,1.94047221 C11.3984978,1.94047221 11.8143843,1.96873042 12.2303668,2.02568009 C14.6241878,2.35385077 16.7472358,3.596586 18.2084105,5.52502801 C19.6695852,7.45337374 20.2939432,9.83664289 19.9665852,12.235702 M19.7386114,4.36042407 C17.967083,2.02240656 15.3930349,0.515719475 12.4907162,0.117842013 C9.58844541,-0.279842888 6.70524454,0.478699781 4.37223581,2.25415274 C2.03932314,4.02955755 0.535925764,6.60918993 0.138965066,9.51785952 C-0.257995633,12.4265291 0.499034934,15.3159908 2.27061135,17.6541046 C4.04213974,19.9921221 6.61613974,21.4988092 9.51845852,21.8966867 C10.0229694,21.9658158 10.5268079,21.9999952 11.0273799,21.9999952 C13.4064541,21.9999952 15.7094891,21.2271549 17.6369389,19.7603759 C17.6714279,19.7341396 17.7051004,19.707133 17.7392052,19.6805116 L19.2695022,21.5518595 C19.4594323,21.7841352 19.7351528,21.9044372 20.013131,21.9044372 C20.2273188,21.9044372 20.4428996,21.8329011 20.6215415,21.6862184 C21.0319039,21.3491899 21.0919476,20.7425291 20.755607,20.3312687 L19.150952,18.3690324 C20.6194279,16.7438245 21.5673013,14.7162621 21.8702576,12.4966691 C22.2672183,9.58799956 21.5101878,6.69853786 19.7386114,4.36042407" id="Fill-7" fill="#FFFFFF" mask="url(#mask-4)"></path>
                    </g>
                </g>
            </g>
        </g>
    </g>
</svg>