<?xml version="1.0" encoding="UTF-8"?>
<svg width="40px" height="40px" viewBox="0 0 40 40" version="1.1" xmlns="http://www.w3.org/2000/svg" xmlns:xlink="http://www.w3.org/1999/xlink">
    <!-- Generator: Sketch 54 (76480) - https://sketchapp.com -->
    <title>故障</title>
    <desc>Created with Sketch.</desc>
    <defs>
        <polygon id="path-1" points="0.035548182 0.0145342627 21.9731004 0.0145342627 21.9731004 21.9999952 0.035548182 21.9999952"></polygon>
        <polygon id="path-3" points="0 0.0473954944 32.9999951 0.0473954944 32.9999951 38.9985698 0 38.9985698"></polygon>
    </defs>
    <g id="页面1" stroke="none" stroke-width="1" fill="none" fill-rule="evenodd">
        <g id="11-功能" transform="translate(-36.000000, -500.000000)">
            <g id="编组-4" transform="translate(36.000000, 500.000000)">
                <g id="故障" transform="translate(0.000000, 0.000000)">
                    <g id="编组" transform="translate(18.000000, 16.393939)">
                        <mask id="mask-2" fill="white">
                            <use xlink:href="#path-1"></use>
                        </mask>
                        <g id="Clip-2"></g>
                        <path d="M19.9663017,12.235702 C19.6388956,14.6347611 18.3988258,16.7624547 16.4746904,18.2268267 C14.8425114,19.4689361 12.9216424,20.069098 11.0149437,20.0689536 C8.28127555,20.0688092 5.57743712,18.8347392 3.80048079,16.4895488 C2.33930611,14.5611549 1.71494803,12.1778858 2.04230611,9.7788267 C2.36976026,7.37976761 3.6097821,5.25207396 5.5339655,3.78770197 C7.16609651,2.5456407 9.08701354,1.94557505 10.9936162,1.94557505 C13.7272843,1.94557505 16.4311227,3.17983764 18.2081271,5.52502801 C19.6693017,7.45337374 20.2936598,9.83664289 19.9663017,12.235702 M19.7383279,4.36042407 C17.9667515,2.02240656 15.3927515,0.515719475 12.4904328,0.117842013 C9.58821004,-0.279842888 6.70500917,0.478699781 4.3719524,2.25415274 C2.03903974,4.02955755 0.535642358,6.60918993 0.138681659,9.51785952 C-0.258279039,12.4265291 0.498751528,15.3159908 2.27032795,17.6541046 C4.0418083,19.9921221 6.61585633,21.4988092 9.51817511,21.8966867 C10.022686,21.9658158 10.5265245,21.9999952 11.0270965,21.9999952 C13.4061707,21.9999952 15.7092057,21.2271549 17.6366555,19.7603759 C19.9695681,17.9849711 21.4729655,15.4053387 21.8699742,12.4966691 C22.2669349,9.58799956 21.5099044,6.69853786 19.7383279,4.36042407" id="Fill-1" fill="#FFFFFF" mask="url(#mask-2)"></path>
                    </g>
                    <g id="编组" transform="translate(0.000000, 0.393939)">
                        <mask id="mask-4" fill="white">
                            <use xlink:href="#path-3"></use>
                        </mask>
                        <g id="Clip-4"></g>
                        <path d="M14.5265951,37.0461293 L3.39705397,37.0461293 C2.59428044,37.0461293 1.94117162,36.3892307 1.94117162,35.5817989 L1.94117162,3.46415181 C1.94117162,2.65672003 2.59428044,1.9998214 3.39705397,1.9998214 L29.6029363,1.9998214 C30.4057099,1.9998214 31.0588187,2.65672003 31.0588187,3.46415181 L31.0588187,12.1525123 C31.0588187,12.6916787 31.493351,13.1287325 32.0294069,13.1287325 C32.5654628,13.1287325 32.9999951,12.6916787 32.9999951,12.1525123 L32.9999951,3.46415181 C32.9999951,1.58014431 31.4760746,0.0473808511 29.6029363,0.0473808511 L3.39705397,0.0473808511 C1.52391574,0.0473808511 -4.85294118e-06,1.58014431 -4.85294118e-06,3.46415181 L-4.85294118e-06,35.5817989 C-4.85294118e-06,37.4658064 1.52391574,38.9985698 3.39705397,38.9985698 L14.5265951,38.9985698 C15.062651,38.9985698 15.4971834,38.561516 15.4971834,38.0223496 C15.4971834,37.4831831 15.062651,37.0461293 14.5265951,37.0461293" id="Fill-3" fill="#FFFFFF" mask="url(#mask-4)"></path>
                    </g>
                    <path d="M6.97222222,6.39393939 C6.43526389,6.39393939 6,6.84163939 6,7.39393939 C6,7.94623939 6.43526389,8.39393939 6.97222222,8.39393939 L26.0277778,8.39393939 C26.5647361,8.39393939 27,7.94623939 27,7.39393939 C27,6.84163939 26.5647361,6.39393939 26.0277778,6.39393939 L6.97222222,6.39393939 Z" id="Fill-5" fill="#FFFFFF"></path>
                    <path d="M16.0756303,14.3939394 L6.92436975,14.3939394 C6.41384034,14.3939394 6,14.8416394 6,15.3939394 C6,15.9462394 6.41384034,16.3939394 6.92436975,16.3939394 L16.0756303,16.3939394 C16.5861597,16.3939394 17,15.9462394 17,15.3939394 C17,14.8416394 16.5861597,14.3939394 16.0756303,14.3939394" id="Fill-7" fill="#FFFFFF"></path>
                    <path d="M29.1866765,32.4117093 C28.6442638,32.3085944 28.1208863,32.6647605 28.0177715,33.2072191 C27.9146567,33.7497229 28.2707771,34.2730561 28.8133251,34.3761711 C29.3557378,34.479286 29.8791154,34.1230748 29.9822301,33.5806613 C30.0853449,33.0382026 29.7291794,32.5148243 29.1866765,32.4117093" id="Fill-9" fill="#FFFFFF"></path>
                    <path d="M29,30.3939394 C29.5523,30.3939394 30,29.950962 30,29.404488 L30,22.3833907 C30,21.8369168 29.5523,21.3939394 29,21.3939394 C28.4477,21.3939394 28,21.8369168 28,22.3833907 L28,29.404488 C28,29.950962 28.4477,30.3939394 29,30.3939394" id="Fill-11" fill="#FFFFFF"></path>
                </g>
            </g>
        </g>
    </g>
</svg>