<?xml version="1.0" encoding="UTF-8"?>
<svg width="38px" height="40px" viewBox="0 0 38 40" version="1.1" xmlns="http://www.w3.org/2000/svg" xmlns:xlink="http://www.w3.org/1999/xlink">
    <!-- Generator: Sketch 54 (76480) - https://sketchapp.com -->
    <title>说明</title>
    <desc>Created with Sketch.</desc>
    <g id="页面1" stroke="none" stroke-width="1" fill="none" fill-rule="evenodd">
        <g id="11-功能" transform="translate(-37.000000, -340.000000)" fill="#FFFFFF">
            <g id="编组-6" transform="translate(37.000000, 340.000000)">
                <g id="说明">
                    <path d="M14.2676471,37.4390522 L3.39705882,37.4390522 C2.59428529,37.4390522 1.94117647,36.7813304 1.94117647,35.9728868 L1.94117647,3.81499203 C1.94117647,3.00654842 2.59428529,2.34882661 3.39705882,2.34882661 L29.6029412,2.34882661 C30.4057147,2.34882661 31.0588235,3.00654842 31.0588235,3.81499203 L31.0588235,12.5142401 C31.0588235,13.0540823 31.4933559,13.4916838 32.0294118,13.4916838 C32.5654676,13.4916838 33,13.0540823 33,12.5142401 L33,3.81499203 C33,1.9286236 31.4760794,0.393939394 29.6029412,0.393939394 L3.39705882,0.393939394 C1.52392059,0.393939394 0,1.9286236 0,3.81499203 L0,35.9728868 C0,37.8592552 1.52392059,39.3939394 3.39705882,39.3939394 L14.2676471,39.3939394 C14.8037029,39.3939394 15.2382353,38.9563379 15.2382353,38.4164958 C15.2382353,37.8766537 14.8037029,37.4390522 14.2676471,37.4390522" id="Fill-1"></path>
                    <path d="M27,7.39393939 C27,6.84163939 26.5647361,6.39393939 26.0277778,6.39393939 L6.97222222,6.39393939 C6.43526389,6.39393939 6,6.84163939 6,7.39393939 C6,7.94623939 6.43526389,8.39393939 6.97222222,8.39393939 L26.0277778,8.39393939 C26.5647361,8.39393939 27,7.94623939 27,7.39393939" id="Fill-3"></path>
                    <path d="M7.00840336,14.3939394 C6.45146218,14.3939394 6,14.8416394 6,15.3939394 C6,15.9462394 6.45146218,16.3939394 7.00840336,16.3939394 L16.9915966,16.3939394 C17.5485378,16.3939394 18,15.9462394 18,15.3939394 C18,14.8416394 17.5485378,14.3939394 16.9915966,14.3939394 L7.00840336,14.3939394 Z" id="Fill-5"></path>
                    <path d="M35.7588594,19.8267388 C33.9822888,17.4419615 31.4009143,15.9051726 28.4903347,15.4993461 C25.5798514,15.0936177 22.688396,15.8674133 20.348795,17.6783377 C18.0091941,19.4892129 16.5015176,22.1203832 16.103427,25.0871644 C15.7053365,28.0539457 16.4645218,31.0011353 18.2411406,33.3859617 C19.0708973,34.4997384 20.0795636,35.4327221 21.2390554,36.1588399 C21.6924952,36.4428939 22.2858255,36.2983381 22.5642576,35.8362409 C22.8428343,35.3741436 22.7011133,34.7693565 22.2477217,34.4854497 C21.2923332,33.8870949 20.4606496,33.1175221 19.7756487,32.1981395 C18.3103151,30.2311696 17.6841799,27.8003347 18.0125179,25.3533454 C18.3408559,22.9063561 19.5844072,20.7361537 21.5140674,19.2425253 C25.4976224,16.1591764 31.1994122,16.9540367 34.2243513,21.0145119 C35.6896368,22.9814327 36.3158201,25.4123167 35.9874821,27.859306 C35.6591441,30.3062954 34.4155446,32.4764978 32.4859326,33.9701261 C32.2074041,34.1856831 31.9147131,34.3864605 31.6159525,34.567057 C31.1582736,34.8436475 31.0072073,35.4461269 31.2786064,35.9126433 C31.4585757,36.2220339 31.7791581,36.3939394 32.1082187,36.3939394 C32.2753262,36.3939394 32.4445532,36.3496495 32.5986543,36.2564543 C32.9603271,36.0379021 33.3144851,35.7949463 33.651205,35.5342647 C35.9907578,33.7234385 37.4984342,31.0922683 37.896573,28.125487 C38.2946635,25.1587058 37.5354782,22.2114671 35.7588594,19.8267388" id="Fill-7"></path>
                    <path d="M31.55506,22.9400192 C30.6070766,21.9430197 29.3441829,21.3939394 27.9990542,21.3939394 C26.6897517,21.3939394 25.45181,21.9191753 24.5132443,22.8728491 C23.576669,23.8244935 23.0394234,25.0990518 23.0004419,26.4617328 C22.9844221,27.0218728 23.4059854,27.4895271 23.9419203,27.5062689 C24.4793115,27.5235688 24.9253899,27.0824477 24.9414097,26.5223584 C24.9651967,25.6893271 25.2938452,24.9099709 25.8668198,24.3277622 C26.4409109,23.744488 27.1981617,23.4232484 27.9990542,23.4232484 C28.8231998,23.4232484 29.5969072,23.7596064 30.177649,24.3703777 C30.7505265,24.9728288 31.0632038,25.7695355 31.0581066,26.6137788 C31.0458733,28.6436966 29.3239397,29.6193376 28.5841651,29.9445851 C27.3405922,30.4913317 26.941311,31.7805518 26.8253859,32.7657813 C26.7192184,33.6681135 26.8285899,34.4491438 26.8414057,34.5352373 C26.9160191,35.0361215 27.3291842,35.3939394 27.7995835,35.3939394 C27.8491964,35.3939394 27.8994888,35.3899315 27.9500725,35.3817128 C28.4799393,35.2955179 28.8425692,34.7767758 28.7600915,34.2230788 C28.7592662,34.2174475 28.6784877,33.6436604 28.7526156,33.0135092 C28.8059178,32.5606181 28.95063,31.9850554 29.3371439,31.81505 C31.6171003,30.8127235 32.9863071,28.8730085 32.9998997,26.6265634 C33.0082494,25.2379073 32.4951306,23.9286478 31.55506,22.9400192" id="Fill-9"></path>
                    <path d="M27.1867551,36.4117061 C26.6442689,36.3085979 26.1209122,36.6647945 26.0177532,37.207277 C25.9146943,37.7497094 26.2708433,38.2730625 26.8133295,38.3761708 C27.3557656,38.479279 27.8791223,38.1231324 27.9822312,37.5807 C28.0853402,37.0382175 27.7291912,36.5148644 27.1867551,36.4117061" id="Fill-11"></path>
                </g>
            </g>
        </g>
    </g>
</svg>