<?xml version="1.0" encoding="UTF-8"?>
<svg width="39px" height="40px" viewBox="0 0 39 40" version="1.1" xmlns="http://www.w3.org/2000/svg" xmlns:xlink="http://www.w3.org/1999/xlink">
    <!-- Generator: Sketch 54 (76480) - https://sketchapp.com -->
    <title>设备</title>
    <desc>Created with Sketch.</desc>
    <g id="页面1" stroke="none" stroke-width="1" fill="none" fill-rule="evenodd">
        <g id="11-功能" transform="translate(-37.000000, -580.000000)" fill="#FFFFFF">
            <g id="编组-3" transform="translate(37.000000, 580.000000)">
                <g id="设备">
                    <path d="M31.2123687,27.9423251 C31.2123687,28.9242167 30.8234968,29.8538326 30.1174526,30.5598768 C29.4114083,31.2659211 28.481842,31.6547929 27.4999009,31.6547929 C25.4529721,31.6547929 23.7875818,29.9894026 23.7875818,27.9423251 C23.7875818,25.8953468 25.4529721,24.230006 27.4999009,24.230006 C29.5469783,24.230006 31.2123687,25.8953468 31.2123687,27.9423251 M27.4999009,22.4424242 C24.4672652,22.4424242 22,24.9096894 22,27.9423251 C22,30.9751095 24.4672652,33.4424242 27.4999009,33.4424242 C30.5326853,33.4424242 33,30.9751095 33,27.9423251 C33,24.9096894 30.5326853,22.4424242 27.4999009,22.4424242" id="Fill-1"></path>
                    <g id="编组" transform="translate(16.000000, 15.442424)">
                        <path d="M19.5531453,14.8389405 C19.316823,15.6751799 19.0636625,16.3218301 18.7339207,16.9326605 C18.4954384,17.3679226 18.4954875,17.9757339 18.7339698,18.4107912 L19.1389676,19.1252944 L17.812784,20.5076839 L17.1322895,20.0884384 L17.1080387,20.0746733 C16.6568958,19.8396953 16.1801766,19.8395929 15.7286409,20.0746733 L15.7020337,20.0898712 C15.0856517,20.4754972 14.3984318,20.7679917 13.7145501,20.935782 L13.7093956,20.9371124 C13.2241346,21.063454 12.816486,21.488226 12.6950848,21.994309 L12.5123694,22.7561967 L10.6005345,22.7561967 L10.4148246,21.9496365 C10.294258,21.4468285 9.89073293,21.0239499 9.40915376,20.8946915 C8.60720908,20.6484558 7.98685067,20.3846172 7.39830299,20.0395699 L7.38156308,20.0302567 C6.93042011,19.7950228 6.45267,19.7950228 6.00162521,20.0303079 L5.29712544,20.4630626 L3.97089273,19.0807243 L4.37304325,18.3713382 L4.37598869,18.36617 C4.59822201,17.9607407 4.67936884,17.3427463 4.36469784,16.8680313 C3.99813803,16.2284427 3.72003956,15.5166516 3.56020044,14.8086472 L3.55892408,14.803223 C3.4377193,14.2973447 3.03011972,13.8725216 2.54480966,13.7461799 L1.81385004,13.5556696 L1.81385004,11.5626545 L2.58751851,11.3690739 C3.06998132,11.2433975 3.47566636,10.8228727 3.59966931,10.3209346 C3.83584438,9.48500223 4.08895572,8.83824968 4.41859936,8.22716345 C4.65727805,7.79210607 4.65727805,7.18419245 4.41864845,6.74893039 L4.01379795,6.03447837 L5.34003066,4.65208893 L6.02037783,5.07123207 L6.04472679,5.08509946 C6.4962134,5.32012869 6.97263806,5.32023103 7.42412467,5.08509946 L7.45073179,5.06985044 C8.06750659,4.68407092 8.75472645,4.39162762 9.43811724,4.22409317 L9.4435663,4.22271155 C9.92868,4.0962164 10.3362305,3.67139326 10.4585644,3.16177947 L10.6433906,2.35895482 L12.5552256,2.35895482 L12.7379409,3.12079135 C12.8585075,3.6235482 13.2619835,4.04642684 13.7435627,4.17578758 C14.5454092,4.42197213 15.1658658,4.68581074 15.7545116,5.03090918 L15.7713497,5.04022233 C16.2223454,5.27545625 16.7000464,5.27545625 17.1510421,5.04022233 L17.8556892,4.60751883 L19.1772583,5.98494466 L18.7838459,6.64730442 L18.7768259,6.65968785 C18.5545435,7.06511711 18.4733967,7.68306028 18.7881659,8.15772415 C19.1546766,8.79736391 19.432726,9.50915503 19.5926142,10.2170571 L19.5938414,10.2224813 C19.7151444,10.7285131 20.122744,11.1534386 20.6115886,11.2807013 L21.3817225,11.4733608 L21.3817225,13.5863212 L20.5650997,13.7906989 C20.0825879,13.9165288 19.677001,14.3371047 19.5531453,14.8389405 M22.9457503,10.5373376 C22.8258219,10.2390096 22.5012346,10.0021382 22.0771405,9.90312195 L21.2342052,9.69224551 C21.0287608,8.95568754 20.7401079,8.24768309 20.3893553,7.61991505 L20.8271456,6.84769076 L20.8403019,6.82251454 C21.0604734,6.36345788 21.2265961,5.71619362 20.7697095,5.23646381 L18.7155608,3.0060144 L18.7099154,3.00002737 C18.5225855,2.80475814 18.2635833,2.70159704 17.9609395,2.70159704 C17.7256972,2.70159704 17.4720458,2.77410661 17.1855529,2.9232706 L16.4148298,3.3968087 C15.8457711,3.06849441 15.2195709,2.79252823 14.4349552,2.52377719 L14.2293636,1.63078892 L14.2199873,1.59681126 C13.9451779,0.737902997 13.4695387,0.557575758 13.1189825,0.557575758 L10.1623514,0.557575758 C9.62839256,0.557575758 9.21367484,0.95737619 9.05197027,1.63078892 L8.84878411,2.5132871 C8.1891041,2.71556678 7.52397503,3.01179674 6.86586592,3.39639933 L6.12013001,2.93703565 L6.09578106,2.9232706 C5.80923899,2.77410661 5.55558766,2.70159704 5.32034532,2.70159704 C5.02015606,2.70159704 4.7629702,2.80312067 4.57598395,2.99526845 L2.3515889,5.18022668 L2.3431944,5.18866993 C1.88277329,5.6686556 2.04904329,6.31781319 2.26960753,6.77779093 L2.72379413,7.58102495 C2.4087304,8.17445713 2.14403368,8.82709436 1.88630782,9.644861 L1.0326216,9.85844951 C0.405243228,10.0051573 0,10.459455 0,11.016658 L0,14.0984935 C0,14.6552871 0.383594256,15.0875813 1.02957798,15.2558321 L1.87580242,15.4676296 C2.08114857,16.2040852 2.36980153,16.9120385 2.72050505,17.5398577 L2.28276382,18.3120308 L2.26960753,18.3373094 C2.04909238,18.7972872 1.88287147,19.4463424 2.3431944,19.9264816 L4.44280105,22.1151241 C4.62478005,22.3047645 4.88216227,22.4135545 5.1489208,22.4135545 C5.38416315,22.4135545 5.63781448,22.3410449 5.92435654,22.1918809 L6.69503049,21.7183428 C7.26428555,22.0466571 7.89053483,22.3226745 8.67505234,22.5913743 L8.87995667,23.48119 C9.02060135,24.1352088 9.45637896,24.5575758 9.99092693,24.5575758 L12.9475089,24.5575758 C13.4814678,24.5575758 13.8962346,24.1577753 14.0579391,23.4843626 L14.2610762,22.6018644 C14.9207562,22.3995847 15.5858853,22.1034059 16.2441908,21.7187522 L16.9898776,22.1781159 L17.0140793,22.1918297 C17.300474,22.3410449 17.5541254,22.4135545 17.789515,22.4135545 C18.0760571,22.4135545 18.3004504,22.3187343 18.4957329,22.115073 L20.5952905,19.9264304 C21.0558098,19.4462912 20.8895398,18.797236 20.6688774,18.3372071 L20.2146908,17.5341266 C20.5298527,16.9404385 20.7945985,16.2878013 21.0522753,15.4702393 L21.9090051,15.2558321 L21.9415522,15.2461096 C22.7655877,14.9597045 22.9385831,14.4639581 22.9385831,14.0984935 L22.9385831,11.1154696 C23.0175699,10.9251639 23.0208099,10.7238565 22.9457503,10.5373376" id="Fill-3"></path>
                    </g>
                    <path d="M13.8352941,37.487537 L3.29411765,37.487537 C2.51567059,37.487537 1.88235294,36.8298152 1.88235294,36.0213716 L1.88235294,3.86347687 C1.88235294,3.05503326 2.51567059,2.39731146 3.29411765,2.39731146 L28.7058824,2.39731146 C29.4843294,2.39731146 30.1176471,3.05503326 30.1176471,3.86347687 L30.1176471,12.562725 C30.1176471,13.1025671 30.5390118,13.5401686 31.0588235,13.5401686 C31.5786353,13.5401686 32,13.1025671 32,12.562725 L32,3.86347687 C32,1.97710845 30.5222588,0.442424242 28.7058824,0.442424242 L3.29411765,0.442424242 C1.47774118,0.442424242 0,1.97710845 0,3.86347687 L0,36.0213716 C0,37.90774 1.47774118,39.4424242 3.29411765,39.4424242 L13.8352941,39.4424242 C14.3551059,39.4424242 14.7764706,39.0048227 14.7764706,38.4649806 C14.7764706,37.9251385 14.3551059,37.487537 13.8352941,37.487537" id="Fill-5"></path>
                    <path d="M27,7.44242424 C27,6.89012424 26.5647361,6.44242424 26.0277778,6.44242424 L6.97222222,6.44242424 C6.43526389,6.44242424 6,6.89012424 6,7.44242424 C6,7.99472424 6.43526389,8.44242424 6.97222222,8.44242424 L26.0277778,8.44242424 C26.5647361,8.44242424 27,7.99472424 27,7.44242424" id="Fill-7"></path>
                    <path d="M6.92436975,14.4424242 C6.41384034,14.4424242 6,14.8901242 6,15.4424242 C6,15.9947242 6.41384034,16.4424242 6.92436975,16.4424242 L16.0756303,16.4424242 C16.5861597,16.4424242 17,15.9947242 17,15.4424242 C17,14.8901242 16.5861597,14.4424242 16.0756303,14.4424242 L6.92436975,14.4424242 Z" id="Fill-9"></path>
                </g>
            </g>
        </g>
    </g>
</svg>