<?xml version="1.0" encoding="UTF-8"?>
<svg width="33px" height="33px" viewBox="0 0 33 33" version="1.1" xmlns="http://www.w3.org/2000/svg" xmlns:xlink="http://www.w3.org/1999/xlink">
    <!-- Generator: Sketch 54 (76480) - https://sketchapp.com -->
    <title>加载中复制</title>
    <desc>Created with Sketch.</desc>
    <g id="页面1" stroke="none" stroke-width="1" fill="none" fill-rule="evenodd" opacity="0.8">
        <g id="9.4工作视图-更改清洁力度复制" transform="translate(-1049.000000, -386.000000)" fill="#FFFFFF" fill-rule="nonzero">
            <g id="任务选择" transform="translate(735.000000, 146.000000)">
                <path d="M330.658281,240 C331.660678,240 332.473281,240.812603 332.473281,241.815 L332.473281,243.63 C332.473281,244.632397 331.660678,245.445 330.658281,245.445 C329.655884,245.445 328.843281,244.632397 328.843281,243.63 L328.843281,241.815 C328.843281,240.812603 329.655884,240 330.658281,240 Z M342.208941,244.78434 C342.917484,245.493097 342.917484,246.641993 342.208941,247.35075 L340.925736,248.633955 C340.470036,249.105776 339.795213,249.295001 339.160635,249.1289 C338.526058,248.9628 338.030481,248.467223 337.864381,247.832646 C337.69828,247.198068 337.887505,246.523245 338.359326,246.067545 L339.642531,244.78434 C340.351288,244.075797 341.500184,244.075797 342.208941,244.78434 L342.208941,244.78434 Z M346.993281,256.335 C346.993281,257.337397 346.180678,258.15 345.178281,258.15 L343.363281,258.15 C342.360884,258.15 341.548281,257.337397 341.548281,256.335 C341.548281,255.332603 342.360884,254.52 343.363281,254.52 L345.178281,254.52 C346.180678,254.52 346.993281,255.332603 346.993281,256.335 L346.993281,256.335 Z M342.208941,267.88566 C341.500184,268.594203 340.351288,268.594203 339.642531,267.88566 L338.359326,266.602455 C337.887505,266.146755 337.69828,265.471932 337.864381,264.837354 C338.030481,264.202777 338.526058,263.7072 339.160635,263.5411 C339.795213,263.374999 340.470036,263.564224 340.925736,264.036045 L342.208941,265.31925 C342.917484,266.028007 342.917484,267.176903 342.208941,267.88566 L342.208941,267.88566 Z M330.658281,272.67 C329.655884,272.67 328.843281,271.857397 328.843281,270.855 L328.843281,269.04 C328.843281,268.037603 329.655884,267.225 330.658281,267.225 C331.660678,267.225 332.473281,268.037603 332.473281,269.04 L332.473281,270.855 C332.473281,271.857397 331.660678,272.67 330.658281,272.67 L330.658281,272.67 Z M319.107621,267.88566 C318.399078,267.176903 318.399078,266.028007 319.107621,265.31925 L320.390826,264.036045 C321.102994,263.34821 322.23502,263.358047 322.935127,264.058154 C323.635234,264.758261 323.645071,265.890287 322.957236,266.602455 L321.674031,267.88566 C320.965274,268.594203 319.816378,268.594203 319.107621,267.88566 L319.107621,267.88566 Z M314.323281,256.335 C314.323281,255.332603 315.135884,254.52 316.138281,254.52 L317.953281,254.52 C318.955678,254.52 319.768281,255.332603 319.768281,256.335 C319.768281,257.337397 318.955678,258.15 317.953281,258.15 L316.138281,258.15 C315.135884,258.15 314.323281,257.337397 314.323281,256.335 Z M319.107621,244.78434 C319.816378,244.075797 320.965274,244.075797 321.674031,244.78434 L322.957236,246.067545 C323.645071,246.779713 323.635234,247.911739 322.935127,248.611846 C322.23502,249.311953 321.102994,249.32179 320.390826,248.633955 L319.107621,247.35075 C318.399078,246.641993 318.399078,245.493097 319.107621,244.78434 Z" id="加载中复制"></path>
            </g>
        </g>
    </g>
</svg>