<?xml version="1.0" encoding="UTF-8"?>
<svg width="49px" height="49px" viewBox="0 0 49 49" version="1.1" xmlns="http://www.w3.org/2000/svg" xmlns:xlink="http://www.w3.org/1999/xlink">
    <!-- Generator: Sketch 54 (76480) - https://sketchapp.com -->
    <title>编组 3</title>
    <desc>Created with Sketch.</desc>
    <defs>
        <linearGradient x1="50%" y1="0%" x2="50%" y2="100%" id="linearGradient-1">
            <stop stop-color="#006BFF" offset="0%"></stop>
            <stop stop-color="#245FD2" offset="100%"></stop>
        </linearGradient>
    </defs>
    <g id="页面1" stroke="none" stroke-width="1" fill="none" fill-rule="evenodd">
        <g id="5-普通场景-除尘任务" transform="translate(-159.000000, -545.000000)">
            <g id="补水点" transform="translate(159.000000, 545.000000)">
                <g id="编组-3" transform="translate(-0.000107, -0.000107)">
                    <path d="M24.5,49 C38.0309239,49 49,38.0309239 49,24.5 C49,10.9690761 38.0309239,0 24.5,0 C10.9690761,0 3.55271368e-15,10.9690761 3.55271368e-15,24.5 C3.55271368e-15,38.0309239 10.9690761,49 24.5,49" id="Fill-1" fill="url(#linearGradient-1)"></path>
                    <path d="M23.701087,17.1623033 C24.3806957,18.2083467 24.7561848,19.4232272 24.7854783,20.6705967 C24.7854783,24.817488 20.5192826,25.5178685 20.5192826,22.9645424 C20.5805326,21.308662 22.6822065,18.6978141 23.7090761,17.1607054 L23.701087,17.1623033 Z M23.765,37.2570967 C26.0051522,37.2677489 28.1574239,36.3852163 29.7451304,34.8049663 C31.332837,33.2247163 32.2254891,31.0767054 32.2254891,28.8360207 C32.2254891,24.1810207 28.912663,19.3981946 23.765,11.7430098 C18.6045543,19.3981946 15.3125,24.1826185 15.3125,28.8360207 C15.3114348,31.0756402 16.2030217,33.2225859 17.7891304,34.8028359 C19.3752391,36.3830859 21.525913,37.2666837 23.765,37.2570967 L23.765,37.2570967 Z" id="Fill-3" fill="#FFFFFF"></path>
                    <path d="M29.7345848,16.4050402 C31.4091065,16.2074424 33.1054652,16.4796054 34.6340522,17.190638 C39.6576174,19.6715293 37.9532696,25.2591272 34.8598783,23.7310728 C32.8908239,22.6674533 30.9856826,18.5583772 29.7372478,16.394388 L29.7345848,16.4050402 Z" id="Fill-5" fill="#FFFFFF"></path>
                </g>
            </g>
        </g>
    </g>
</svg>