<?xml version="1.0" encoding="UTF-8"?>
<svg width="49px" height="49px" viewBox="0 0 49 49" version="1.1" xmlns="http://www.w3.org/2000/svg" xmlns:xlink="http://www.w3.org/1999/xlink">
    <!-- Generator: Sketch 54 (76480) - https://sketchapp.com -->
    <title>编组</title>
    <desc>Created with Sketch.</desc>
    <defs>
        <linearGradient x1="50%" y1="0%" x2="50%" y2="100%" id="linearGradient-1">
            <stop stop-color="#006BFF" offset="0%"></stop>
            <stop stop-color="#245FD2" offset="100%"></stop>
        </linearGradient>
    </defs>
    <g id="页面1" stroke="none" stroke-width="1" fill="none" fill-rule="evenodd">
        <g id="5-普通场景-除尘任务" transform="translate(-245.000000, -545.000000)">
            <g id="排水点" transform="translate(245.000000, 545.000000)">
                <g id="编组">
                    <g id="编组-4" transform="translate(-0.000107, -0.000107)">
                        <path d="M24.5,49 C38.0309239,49 49,38.0309239 49,24.5 C49,10.9690761 38.0309239,0 24.5,0 C10.9690761,0 3.55271368e-15,10.9690761 3.55271368e-15,24.5 C3.55271368e-15,38.0309239 10.9690761,49 24.5,49" id="Fill-1" fill="url(#linearGradient-1)"></path>
                        <path d="M39.3672924,30.3615717 C39.3672924,34.4871587 32.7171402,37.8175609 24.4771511,37.8175609 C16.237162,37.8175609 9.58700978,34.4887565 9.58700978,30.3615717 L9.58700978,30.2151043 C9.63281413,28.953887 10.3534337,27.814637 11.4729772,27.2324957 C12.5839989,26.6428978 13.9229772,26.680713 14.9983141,27.3320935 L15.0467815,27.3320935 C13.1107489,28.2764087 12.0641728,29.4199196 12.0641728,30.3642348 C12.0641728,32.4025283 16.8784228,35.3345391 24.4734228,35.3345391 C32.0684228,35.3345391 36.8821402,32.4025283 36.8821402,30.3642348 C36.8821402,29.4199196 35.839825,28.2764087 33.953325,27.3320935 L34.0017924,27.3320935 C35.0963033,26.6716587 36.4629772,26.6524848 37.5755967,27.2825609 C38.6711728,27.9073109 39.3667598,29.0540174 39.4136293,30.3147022 C39.3859337,30.3147022 39.3635641,30.3370717 39.3635641,30.3642348 L39.3672924,30.3615717 Z M24.4771511,32.837137 C21.5483359,32.837137 17.3796076,32.0914848 15.4430424,29.9045935 C16.2451511,29.4497457 17.0935967,29.0827783 17.9745315,28.8111478 C19.9537054,29.9274957 22.2077054,30.4611696 24.4771511,30.3519848 C26.7615098,30.4521152 29.0293576,29.9184413 31.0298359,28.8111478 C31.9123685,29.0838435 32.7629446,29.4518761 33.5655859,29.9083217 C31.5773576,32.0936152 27.4107598,32.8408652 24.4808793,32.8408652 L24.4771511,32.837137 Z M24.4270859,12.2092022 C24.9570315,13.0246261 25.2494337,13.9716043 25.2723359,14.9430826 C25.2723359,18.173887 21.948325,18.7198109 21.948325,16.7299848 C21.9957272,15.4405391 23.6334989,13.4065065 24.4334772,12.2086696 L24.4270859,12.2092022 Z M24.4771511,27.8663 C26.2225098,27.8748217 27.8996946,27.1872239 29.136412,25.9558326 C30.373662,24.7249739 31.0692489,23.0509848 31.0692489,21.3056261 C31.0692489,17.6785609 28.4882272,13.9513652 24.4771511,7.98721304 C20.4559554,13.9513652 17.8914446,17.6796261 17.8914446,21.3056261 C17.890912,23.0499196 18.5849011,24.7233761 19.8210859,25.9542348 C21.056738,27.1856261 22.7328576,27.8737565 24.4771511,27.8663 L24.4771511,27.8663 Z" id="Fill-3" fill="#FFFFFF"></path>
                    </g>
                </g>
            </g>
        </g>
    </g>
</svg>