<?xml version="1.0" encoding="UTF-8"?>
<svg width="37px" height="37px" viewBox="0 0 37 37" version="1.1" xmlns="http://www.w3.org/2000/svg" xmlns:xlink="http://www.w3.org/1999/xlink">
    <!-- Generator: Sketch 54 (76480) - https://sketchapp.com -->
    <title>选中@1x</title>
    <desc>Created with Sketch.</desc>
    <defs>
        <path d="M15.3,0 C6.851,0 0,6.851 0,15.3 C0,23.749 6.851,30.6 15.3,30.6 C23.749,30.6 30.6,23.749 30.6,15.3 C30.6,6.8476 23.7524,1.44950718e-15 15.3,0 Z M24.6289555,11.6689443 L14.8798809,21.3557742 C14.5834098,21.6503524 14.2042025,21.8147682 13.8146532,21.8490215 C13.3182364,21.8969761 12.8080302,21.7325603 12.4253756,21.3557742 L7.06131618,16.0293879 C6.38908508,15.3614487 6.38908508,14.2756195 7.06131618,13.6076804 C7.73354727,12.9397413 8.82635372,12.9397413 9.49858482,13.6076804 L13.6491809,17.7317763 L22.1916868,9.24381148 C22.8639179,8.57587236 23.9567244,8.57587236 24.6289555,9.24381148 C25.3046339,9.91517593 25.3046339,11.0010052 24.6289555,11.6689443 Z" id="path-1"></path>
        <filter x="-16.3%" y="-13.1%" width="132.7%" height="132.7%" filterUnits="objectBoundingBox" id="filter-2">
            <feOffset dx="0" dy="1" in="SourceAlpha" result="shadowOffsetOuter1"></feOffset>
            <feGaussianBlur stdDeviation="1.5" in="shadowOffsetOuter1" result="shadowBlurOuter1"></feGaussianBlur>
            <feColorMatrix values="0 0 0 0 0   0 0 0 0 0   0 0 0 0 0  0 0 0 0.0875491696 0" type="matrix" in="shadowBlurOuter1"></feColorMatrix>
        </filter>
    </defs>
    <g id="页面1" stroke="none" stroke-width="1" fill="none" fill-rule="evenodd">
        <g id="5-普通场景-除尘任务" transform="translate(-938.000000, -211.000000)" fill-rule="nonzero">
            <g id="任务选择" transform="translate(635.000000, 146.000000)">
                <g id="选中" transform="translate(306.000000, 67.000000)">
                    <g id="Shape">
                        <use fill="black" fill-opacity="1" filter="url(#filter-2)" xlink:href="#path-1"></use>
                        <use fill="#39DE77" xlink:href="#path-1"></use>
                    </g>
                </g>
            </g>
        </g>
    </g>
</svg>