<?xml version="1.0" encoding="UTF-8"?>
<svg width="33px" height="26px" viewBox="0 0 33 26" version="1.1" xmlns="http://www.w3.org/2000/svg" xmlns:xlink="http://www.w3.org/1999/xlink">
    <!-- Generator: Sketch 54 (76480) - https://sketchapp.com -->
    <title>Shape</title>
    <desc>Created with Sketch.</desc>
    <g id="页面1" stroke="none" stroke-width="1" fill="none" fill-rule="evenodd">
        <g id="2.2-首次登陆-密码输入" transform="translate(-770.000000, -749.000000)" fill="#FFFFFF" fill-rule="nonzero">
            <g id="数字输入键盘" transform="translate(410.000000, 499.000000)">
                <g id="Group-4">
                    <g id="取消" transform="translate(359.489492, 250.000000)">
                        <path d="M9.61219938,0.744840513 L0.972825455,11.8133541 C0.41873095,12.5232438 0.432471431,13.5228492 1.00586905,14.2172405 L9.61278292,24.640315 C9.97752277,25.0820193 10.5204371,25.3377941 11.0932702,25.3377941 L31.2489089,25.3377941 C32.3092956,25.3377941 33.1689089,24.4781808 33.1689089,23.4177941 L33.1689089,1.92620594 C33.1689089,0.865819216 32.3092956,0.00620593548 31.2489089,0.00620593548 L11.1257303,0.00620593548 C10.5343938,0.00620593548 9.97604545,0.278691556 9.61219938,0.744840513 Z M10.4966395,22.9533687 L3.22088256,14.1728152 C2.6447836,13.4775655 2.63095497,12.4748468 3.1876619,11.7639744 L10.4959923,2.43179294 C10.8599193,1.96708585 11.4173674,1.69559535 12.0076178,1.69559535 L29.7753114,1.69559535 C30.8356982,1.69559535 31.6953114,2.55520864 31.6953114,3.61559535 L31.6953114,21.7283303 C31.6953114,22.788717 30.8356982,23.6483303 29.7753114,23.6483303 L11.9750444,23.6483303 C11.4033547,23.6483303 10.8614009,23.3935712 10.4966395,22.9533687 Z M15.8164722,19.4160681 L20.4686123,14.0827541 L24.7059992,18.9405894 L25.7479875,17.7480836 L21.5100496,12.888799 L25.7937903,7.97782297 L24.7434712,6.77171613 L20.4593091,11.6839556 L15.8539443,6.40333626 L14.8102703,7.59591639 L19.4178718,12.8781337 L14.7661208,18.2118194 L15.8164722,19.4160681 Z" id="Shape"></path>
                    </g>
                </g>
            </g>
        </g>
    </g>
</svg>