<?xml version="1.0" encoding="UTF-8"?>
<svg width="27px" height="38px" viewBox="0 0 27 38" version="1.1" xmlns="http://www.w3.org/2000/svg" xmlns:xlink="http://www.w3.org/1999/xlink">
    <!-- Generator: Sketch 54 (76480) - https://sketchapp.com -->
    <title>用户</title>
    <desc>Created with Sketch.</desc>
    <g id="页面1" stroke="none" stroke-width="1" fill="none" fill-rule="evenodd" fill-opacity="0.5">
        <g id="2-首次登陆" transform="translate(-435.000000, -281.000000)" fill="#FFFFFF">
            <g id="用户框" transform="translate(410.000000, 265.000000)">
                <path d="M49.2210526,46.3472222 C49.0842105,46.3472222 48.9473684,46.2152778 48.6736842,46.2152778 L48.6736842,46.2152778 C46.2105263,45.1597222 42.9263158,43.4444444 42.9263158,40.8055556 C42.9263158,36.8472222 47.7157895,36.1875 48.4,28.0069444 C48.8105263,21.4097222 45.1157895,16.5277778 38.2736842,16.5277778 C31.4315789,16.5277778 27.7368421,21.4097222 28.1473684,28.0069444 C28.6947368,36.3194444 33.6210526,36.8472222 33.6210526,40.8055556 C33.6210526,43.4444444 30.3368421,45.1597222 27.8736842,46.2152778 L27.8736842,46.2152778 C27.7368421,46.2152778 27.6,46.3472222 27.3263158,46.3472222 C25.9578947,47.0069444 25,48.3263889 25,49.9097222 C25,52.0208333 26.7789474,53.7361111 28.9684211,53.7361111 L38.1368421,53.7361111 L47.3052632,53.7361111 C49.4947368,53.7361111 51.2736842,52.0208333 51.2736842,49.9097222 C51.5473684,48.3263889 50.5894737,47.0069444 49.2210526,46.3472222 L49.2210526,46.3472222 Z" id="用户"></path>
            </g>
        </g>
    </g>
</svg>